<?xml version="1.0" encoding="UTF-8" standalone="no"?>
<!-- Created with Inkscape (http://www.inkscape.org/) -->

<svg
   xmlns:dc="http://purl.org/dc/elements/1.1/"
   xmlns:cc="http://creativecommons.org/ns#"
   xmlns:rdf="http://www.w3.org/1999/02/22-rdf-syntax-ns#"
   xmlns:svg="http://www.w3.org/2000/svg"
   xmlns="http://www.w3.org/2000/svg"
   xmlns:sodipodi="http://sodipodi.sourceforge.net/DTD/sodipodi-0.dtd"
   xmlns:inkscape="http://www.inkscape.org/namespaces/inkscape"
   width="210mm"
   height="297mm"
   viewBox="0 0 744.09448819 1052.3622047"
   id="svg3436"
   version="1.1"
   inkscape:version="0.91 r13725"
   sodipodi:docname="DoNotTouch.svg">
  <defs
     id="defs3438" />
  <sodipodi:namedview
     id="base"
     pagecolor="#ffffff"
     bordercolor="#666666"
     borderopacity="1.0"
     inkscape:pageopacity="0.0"
     inkscape:pageshadow="2"
     inkscape:zoom="0.35"
     inkscape:cx="-52.142857"
     inkscape:cy="520"
     inkscape:document-units="px"
     inkscape:current-layer="layer1"
     showgrid="false"
     inkscape:window-width="1920"
     inkscape:window-height="1017"
     inkscape:window-x="-8"
     inkscape:window-y="-8"
     inkscape:window-maximized="1" />
  <metadata
     id="metadata3441">
    <rdf:RDF>
      <cc:Work
         rdf:about="">
        <dc:format>image/svg+xml</dc:format>
        <dc:type
           rdf:resource="http://purl.org/dc/dcmitype/StillImage" />
        <dc:title></dc:title>
      </cc:Work>
    </rdf:RDF>
  </metadata>
  <g
     inkscape:label="Layer 1"
     inkscape:groupmode="layer"
     id="layer1">
    <g
       id="g3346"
       transform="matrix(0.98875,0,0,-0.99125,69.062186,930.42999)">
      <path
         d="m 14.3929,545.7016 c 0,156.1538 126.5922,282.7432 282.7451,282.7432 156.157,0 282.7446,-126.5894 282.7446,-282.7432 0,-156.1541 -126.5876,-282.7468 -282.7446,-282.7468 -156.1529,0 -282.7451,126.5927 -282.7451,282.7468"
         style="fill:#ed1c24;fill-opacity:1;fill-rule:evenodd;stroke:none"
         id="path3348"
         inkscape:connector-curvature="0" />
      <path
         d="m 476.0762,408.0192 c 29.3749,38.1101 46.8867,85.8401 46.8867,137.6824 0,124.7153 -101.1084,225.8204 -225.8249,225.8204 -51.8442,0 -99.5743,-17.5094 -137.6838,-46.8848 l 316.622,-316.618"
         style="fill:#ffffff;fill-opacity:1;fill-rule:evenodd;stroke:none"
         id="path3350"
         inkscape:connector-curvature="0" />
      <path
         d="M 118.1282,683.2933 C 88.7953,645.1923 71.3171,597.5014 71.3171,545.7016 c 0,-124.7153 101.1045,-225.8201 225.8209,-225.8201 51.7516,0 99.4136,17.4572 137.5064,46.7394 L 118.1282,683.2933"
         style="fill:#ffffff;fill-opacity:1;fill-rule:evenodd;stroke:none"
         id="path3352"
         inkscape:connector-curvature="0" />
      <path
         d="m 403.0019,703.1157 c 13.2287,-17.9606 27.9836,-31.1235 41.3299,-48.6524 1.4338,-1.8836 -1.8796,-4.6386 -3.1784,-7.0719 -6.6017,-12.3959 -14.3927,-23.1287 -21.5255,-35.4472 -4.3087,-7.4194 -8.1445,-15.5376 -16.0948,-19.0423 -8.4989,-3.7389 -19.7714,-3.7653 -26.1377,4.5413 -1.7705,2.3097 -2.5801,4.9148 -3.246,7.6499 -1.6435,6.7861 2.0996,12.4192 5.3204,18.0227 7.5038,13.0685 19.7713,22.5022 23.987,36.7469 2.6388,8.9688 -6.1208,17.4081 -14.2829,21.079 -3.8693,1.7413 -8.3466,0.7988 -11.8205,-2.1668 -4.0303,-3.4364 -6.088,-7.8579 -7.9424,-12.5031 -1.2393,-3.1124 -2.4199,-6.3119 -3.2714,-9.5703 -1.205,-4.5541 -2.7655,-8.6797 -3.5751,-13.3475 -3.3301,-19.4621 -5.042,-37.5199 -8.17,-56.9231 -0.6914,-4.2522 -0.6574,-9.1219 -4.5439,-11.8148 -1.7031,-1.1826 -2.8749,1.4097 -4.258,1.8193 -3.0693,0.9128 -1.2393,-5.4967 -2.5546,-7.6275 -0.54,-0.8739 -1.5684,0.2662 -2.1251,1.2702 -1.2557,-0.7897 -0.8935,-2.7382 -2.4023,-3.3525 0.0498,1.0332 -0.9199,1.5625 -1.4843,1.741 -1.9562,0.6075 -1.7197,-3.5829 -3.204,-3.2451 -1.3906,0.315 -1.3906,4.5026 -3.2714,3.5411 -1.5509,-0.796 -0.1007,-3.6352 -2.1328,-4.8339 -0.7081,-0.406 -1.1886,0.5522 -1.2481,0.9062 -1.5596,9.5703 -1.2229,18.877 -1.0539,28.2294 0.1182,6.6399 1.332,13.3478 2.3439,20.1988 1.5682,10.5934 2.3182,20.9463 2.5966,31.5394 0.371,13.6304 2.0744,26.9459 3.9208,40.6837 0.8263,6.1591 2.6133,12.0132 5.0928,17.714 0.7667,1.7671 2.2929,3.1541 3.5246,4.5901 7.6464,8.8586 16.2127,15.4075 25.7235,22.5703 3.9884,3.005 6.9979,6.8542 11.8293,8.339 5.8601,-12.6493 13.2205,-23.8536 21.8543,-35.5839"
         style="fill:#000000;fill-opacity:1;fill-rule:evenodd;stroke:none"
         id="path3354"
         inkscape:connector-curvature="0" />
      <path
         d="m 395.498,625.0907 c -2.7998,0.6758 -5.497,-0.3637 -7.4033,-2.0979 -5.7756,-5.2467 -11.9803,-12.3285 -10.2353,-20.219 1.8544,-8.4458 11.1212,-10.4794 19.0548,-9.0145 1.5006,0.2793 11.9559,13.2441 11.2722,19.8837 -0.5136,5.0289 -10.0664,10.8178 -12.6884,11.4477"
         style="fill:#ffffff;fill-opacity:1;fill-rule:evenodd;stroke:none"
         id="path3356"
         inkscape:connector-curvature="0" />
      <path
         d="m 318.5614,565.5268 3.9045,0 0,14.3714 -9.4269,0.003 c -0.3115,4.6712 -0.919,9.2257 -1.8125,13.7155 l 9.1143,2.41 -3.7188,13.8809 -9.1055,-2.4071 c -1.5009,4.3752 -3.1991,8.6697 -5.2185,12.7729 l 8.1022,4.6616 -7.1872,12.4446 -8.1785,-4.6973 c -2.5509,3.7877 -5.2912,7.5368 -8.2837,10.9636 l 6.5596,6.6367 -10.1602,10.1611 -6.6645,-6.6529 c -3.4444,3.018 -7.0827,5.8799 -10.8981,8.443 l 4.6587,8.1113 -12.4492,7.1856 -4.6961,-8.1729 c -4.0935,2.0172 -8.3469,3.807 -12.7145,5.3014 l 2.3862,9.0955 -13.8779,3.7227 -2.4117,-9.1119 c -4.4895,0.8838 -9.0425,1.4913 -13.7135,1.8 l 0,9.4334 -14.371,0 0,-3.9047 120.1628,-120.1675"
         style="fill:#000000;fill-opacity:1;fill-rule:evenodd;stroke:none"
         id="path3358"
         inkscape:connector-curvature="0" />
      <path
         d="M 292.3449,508.9907 141.9846,659.4236 c -2.5081,-1.8221 -5.0548,-3.5988 -7.3735,-5.6327 l -6.6016,6.6529 -10.1597,-10.1611 6.6524,-6.6628 c -3.0141,-3.4466 -5.7881,-7.1365 -8.3515,-10.9505 l -8.2037,4.7103 -7.1875,-12.4446 8.1572,-4.6846 c -2.0279,-4.106 -3.7899,-8.3679 -5.2821,-12.7465 l -9.0977,2.4037 -3.714,-13.8809 9.0805,-2.4526 c -0.868,-4.46 -1.408,-9.0309 -1.7155,-13.6729 l -9.4896,-0.003 0,-14.3714 9.4303,0 c 0.3082,-4.6805 0.919,-9.2284 1.8003,-13.7282 l -9.106,-2.3938 3.714,-13.8838 9.0977,2.4429 c 1.4882,-4.3693 3.2417,-8.6412 5.2524,-12.7375 l -8.1275,-4.7327 7.1875,-12.445 8.149,4.6973 c 2.5716,-3.8236 5.3833,-7.4815 8.4062,-10.938 l -6.6524,-6.6626 10.1597,-10.1642 6.6733,6.6529 c 3.4444,-3.0146 7.1073,-5.8342 10.9145,-8.3939 l -4.6797,-8.1539 12.445,-7.1855 4.7216,8.1538 c 4.0808,-2.0015 8.3429,-3.8006 12.689,-5.2886 l -2.3862,-9.0958 13.8867,-3.7162 2.4366,9.0306 c 4.4558,-0.8767 9.0423,-1.4164 13.6797,-1.7215 l 0.009,-9.4337 14.371,0 0,9.4337 c 4.6755,0.3116 9.2328,0.9159 13.7262,1.806 l 2.399,-9.1151 13.8779,3.7162 -2.3735,9.0567 c 4.3124,1.4746 8.5955,3.2942 12.6431,5.2818 l 4.7548,-8.1141 12.4492,7.1855 -4.7554,8.1079 c 3.8911,2.6119 7.5841,5.3408 11.0829,8.4135 l 6.5764,-6.6203 10.1602,10.1642 -6.6526,6.6626 c 2.0276,2.313 3.8869,4.7202 5.6871,7.1827"
         style="fill:#000000;fill-opacity:1;fill-rule:evenodd;stroke:none"
         id="path3360"
         inkscape:connector-curvature="0" />
      <path
         d="m 316.3272,484.994 -4.8643,-0.6429 1.4998,-11.3956 7.4875,0.9808 c 0.7333,-3.6771 1.6866,-7.2244 2.8584,-10.6937 l -6.9814,-2.8587 4.4013,-10.6161 6.956,2.8846 c 1.6435,-3.3137 3.4735,-6.5163 5.506,-9.5567 l -5.9533,-4.6001 6.9981,-9.1216 5.9698,4.5737 c 2.4364,-2.7612 5.0584,-5.3731 7.8154,-7.7964 l -4.5782,-5.9769 9.123,-6.997 4.595,5.9706 c 3.035,-2.033 6.239,-3.8854 9.536,-5.5222 l -2.8673,-6.9582 10.624,-4.3985 2.8916,6.971 c 3.4404,-1.169 7.0158,-2.1507 10.6155,-2.8712 l -0.9357,-7.4648 11.3904,-1.501 0.6409,4.8204 -82.7285,82.7705"
         style="fill:#000000;fill-opacity:1;fill-rule:evenodd;stroke:none"
         id="path3362"
         inkscape:connector-curvature="0" />
      <path
         d="m 496.876,472.9487 1.5009,11.4024 -7.4112,0.9873 c 0.2277,3.6317 0.1769,7.3256 -0.0586,11.0384 l 7.4698,0.9873 -1.5009,11.399 -7.4787,-0.9842 c -0.7333,3.6742 -1.6942,7.2215 -2.8582,10.6908 l 6.9724,2.8616 -4.3925,10.6228 -6.9724,-2.8618 c -1.6526,3.3162 -3.4484,6.5423 -5.4805,9.5893 l 5.9354,4.538 -6.9893,9.1216 -6.003,-4.5799 c -2.4196,2.7382 -4.9833,5.428 -7.7147,7.8318 l 4.5107,5.9479 -9.1142,7.0005 -4.5947,-5.9738 c -3.0526,2.0333 -6.2317,3.924 -9.5196,5.5582 l 2.8418,6.9222 -10.624,4.3985 -2.8749,-6.9746 c -3.4571,1.173 -7.0146,2.1504 -10.6319,2.8786 l 0.9354,7.4647 -11.3904,1.5004 -0.961,-7.4775 c -3.6592,0.2339 -7.3273,0.2404 -11.0616,-0.003 l -0.9953,7.4809 -11.3904,-1.5004 0.9776,-7.4814 c -3.6759,-0.7339 -7.2257,-1.6889 -10.6993,-2.8647 l -2.8497,6.9774 -10.624,-4.3985 2.8418,-6.9775 c -3.3047,-1.6404 -6.5087,-3.4761 -9.5437,-5.5029 l -4.5618,5.9738 -9.123,-6.9971 4.545,-6.0001 c -2.7657,-2.4363 -5.4042,-5.0317 -7.8242,-7.7898 l -5.919,4.5867 -1.0879,-1.4063 131.8408,-131.8453 1.4082,1.078 -4.6122,5.9383 c 2.8077,2.4755 5.447,5.0287 7.9092,7.8355 l 5.91,-4.5674 6.9893,9.1216 -5.9689,4.5933 c 2.0656,3.1059 3.8869,6.2761 5.548,9.6414 l 6.9384,-2.9693 4.3925,10.6229 -6.8876,2.8134 c 1.1886,3.5013 2.1164,7.0681 2.8497,10.739 l 7.4024,-0.9876"
         style="fill:#000000;fill-opacity:1;fill-rule:evenodd;stroke:none"
         id="path3364"
         inkscape:connector-curvature="0" />
    </g>
  </g>
</svg>
