<?xml version="1.0" encoding="UTF-8" standalone="no"?>
<!-- Created with Inkscape (http://www.inkscape.org/) -->

<svg
   xmlns:dc="http://purl.org/dc/elements/1.1/"
   xmlns:cc="http://creativecommons.org/ns#"
   xmlns:rdf="http://www.w3.org/1999/02/22-rdf-syntax-ns#"
   xmlns:svg="http://www.w3.org/2000/svg"
   xmlns="http://www.w3.org/2000/svg"
   xmlns:sodipodi="http://sodipodi.sourceforge.net/DTD/sodipodi-0.dtd"
   xmlns:inkscape="http://www.inkscape.org/namespaces/inkscape"
   width="210mm"
   height="297mm"
   viewBox="0 0 744.09448819 1052.3622047"
   id="svg4273"
   version="1.1"
   inkscape:version="0.91 r13725"
   sodipodi:docname="EmergencyStop.svg">
  <defs
     id="defs4275" />
  <sodipodi:namedview
     id="base"
     pagecolor="#ffffff"
     bordercolor="#666666"
     borderopacity="1.0"
     inkscape:pageopacity="0.0"
     inkscape:pageshadow="2"
     inkscape:zoom="0.35"
     inkscape:cx="-52.142857"
     inkscape:cy="520"
     inkscape:document-units="px"
     inkscape:current-layer="layer1"
     showgrid="false"
     inkscape:window-width="1920"
     inkscape:window-height="1017"
     inkscape:window-x="-8"
     inkscape:window-y="-8"
     inkscape:window-maximized="1" />
  <metadata
     id="metadata4278">
    <rdf:RDF>
      <cc:Work
         rdf:about="">
        <dc:format>image/svg+xml</dc:format>
        <dc:type
           rdf:resource="http://purl.org/dc/dcmitype/StillImage" />
        <dc:title></dc:title>
      </cc:Work>
    </rdf:RDF>
  </metadata>
  <g
     inkscape:label="Layer 1"
     inkscape:groupmode="layer"
     id="layer1">
    <g
       id="g4196"
       transform="matrix(0.9975,0,0,-1,71.041518,790.39491)">
      <path
         d="m 17.7423,661.866 c 0,21.4477 18.9125,39.217 39.2174,39.217 l 482.724,0.0935 c 20.3079,0 39.2227,-17.7655 39.2227,-39.2167 l 0,-482.1415 c 0,-21.4515 -18.9148,-39.2151 -39.2227,-39.2151 l -482.8182,0 c -20.3079,0 -39.2207,17.7636 -39.2207,39.2151 l 0.0975,482.0477"
         style="fill:#006838;fill-opacity:1;fill-rule:evenodd;stroke:none"
         id="path4198"
         inkscape:connector-curvature="0" />
      <path
         d="m 389.8412,193.0847 0,25.8024 -73.101,0 0,203.4391 77.6446,0 c -10.4388,47.5234 -52.7924,83.0863 -103.447,83.0863 -50.6602,0 -93.0101,-35.5629 -103.4526,-83.0863 l 77.6505,0 0,-203.4391 -73.1049,0 0,-25.8024 197.8104,0"
         style="fill:#ffffff;fill-opacity:1;fill-rule:evenodd;stroke:none"
         id="path4200"
         inkscape:connector-curvature="0" />
      <path
         d="m 228.3454,253.1665 c -6.4763,0 -12.0393,-3.8807 -14.5128,-9.4326 l -136.4729,0 0,-12.903 136.4729,0 c 2.4735,-5.5523 8.0365,-9.4252 14.5128,-9.4252 8.7653,0 15.8766,7.1073 15.8766,15.8729 0,8.7732 -7.1113,15.8879 -15.8766,15.8879"
         style="fill:#ffffff;fill-opacity:1;fill-rule:evenodd;stroke:none"
         id="path4202"
         inkscape:connector-curvature="0" />
      <path
         d="m 351.3847,253.1665 c 6.476,0 12.0413,-3.8807 14.5051,-9.4326 l 136.4808,0 0,-12.903 -136.4808,0 c -2.4638,-5.5523 -8.0291,-9.4252 -14.5051,-9.4252 -8.7713,0 -15.8783,7.1073 -15.8783,15.8729 0,8.7732 7.107,15.8879 15.8783,15.8879"
         style="fill:#ffffff;fill-opacity:1;fill-rule:evenodd;stroke:none"
         id="path4204"
         inkscape:connector-curvature="0" />
      <path
         d="m 571.5797,541.2396 0,122.0431 c 0,14.1772 -10.8273,26.2483 -23.7958,29.2275 -4.7313,0.193 -5.0476,-0.2846 -9.1927,-1.4015 -56.0719,-15.0953 -51.8499,-13.0362 -103.9947,-37.1052 -4.9768,-2.2992 -8.4055,-2.8032 -10.8323,-2.8706 -26.4863,-0.7345 -70.1966,-16.454 -97.9495,-34.9597 3.3446,-2.1493 13.377,-4.2985 17.1978,-4.0587 6.7777,0.4218 17.6811,3.581 21.2638,4.0587 2.6482,0.356 6.6878,0.4799 8.5989,2.1532 1.9114,1.6733 12.6652,8.5989 15.0466,8.8387 2.3967,0.2378 3.8305,0.4776 5.0242,1.6713 1.1933,1.1936 15.7643,7.8851 19.8246,7.8851 -2.3817,-1.6716 -24.6087,-12.9013 -27.2302,-14.8107 -2.6328,-1.9111 -5.2543,-4.0624 3.0992,-3.8262 -2.1493,-0.7158 -2.8647,-0.7158 -3.5827,-1.1937 -0.7155,-0.4779 0.718,-0.4779 -2.8647,-0.4779 -6.3732,0 -29.6195,-3.5827 -36.0672,-7.1654 -2.2207,-1.2328 -2.1566,-1.9112 -4.068,-0.7158 -0.4646,0.2923 -41.4184,10.7762 -53.5122,6.9256 -9.2415,-2.9401 0.6429,-2.6325 -6.6875,-0.4776 -2.0313,0.5975 -19.5888,6.2135 -25.5622,5.4975 0,0 1.1933,-16.7236 1.1933,-18.8728 0,-2.1532 -0.7177,-3.3466 1.4335,-4.5422 2.1529,-1.1937 10.0341,-4.7764 21.024,-3.3429 -4.7798,-1.4335 -17.9169,-0.4777 -21.5036,0.9558 -3.5807,1.4332 -1.4318,2.865 -2.3871,5.9735 -0.9558,3.105 -2.1495,17.6777 -2.8672,19.1111 -2.1489,-0.2418 -11.9455,-1.4334 -16.2437,-11.228 -4.3007,-9.7962 -3.8228,-19.3507 5.7317,-27.7135 9.5564,-8.361 38.226,-24.605 66.6533,-24.3669 28.4289,0.2398 29.6229,1.9112 48.492,-1.4334 18.8821,-3.3469 40.3787,-17.6777 44.9169,-24.607 -3.1048,0.2381 -6.6877,2.6271 -8.837,3.8208 -2.1489,1.1973 -7.1728,3.5864 -10.7478,3.5864 5.9116,-11.8276 45.0706,-38.5555 93.484,-37.6674 51.1028,0.9389 70.8696,19.4466 75.8143,38.2221 1.1674,4.4671 1.6847,1.7462 2.5427,0.3203 0.9559,-1.5908 0.9559,-8.2822 3.1893,-7.647 2.2277,0.6389 12.4404,10.1934 13.396,10.1934"
         style="fill:#ffffff;fill-opacity:1;fill-rule:evenodd;stroke:none"
         id="path4206"
         inkscape:connector-curvature="0" />
      <path
         d="m 229.4583,600.1673 c -20.3794,0 -31.6635,-3.7757 -50.3302,-10.1899 -10.1897,-3.5059 -31.214,-8.2823 -42.6819,-8.9212 -11.4655,-0.6353 -33.3989,-0.2118 -42.0463,-3.8206 -9.1556,-3.8225 -5.2149,-3.8225 -17.8387,-3.5059 -9.5731,0.2415 -29.4619,-1.0326 -29.7825,-6.7683 -0.2021,-3.6895 5.8615,-6.7399 9.3994,-7.2459 9.639,-1.3753 10.1092,1.6977 20.3831,4.7801 6.3712,1.9111 20.0177,4.4634 28.7501,2.8239 5.732,-1.0758 5.9361,0.1029 8.5201,0.6783 2.8667,0.6352 22.347,5.6214 31.2548,6.1328 8.3628,0.4759 10.3921,1.1936 12.1836,1.6715 1.7912,0.4777 27.8334,6.2099 36.6704,5.9718 8.8407,-0.2398 18.8771,0.4779 21.5036,1.9094 2.6275,1.4335 14.095,4.7801 16.962,5.258 -0.4776,1.9111 -0.6389,7.4052 -2.9475,11.226"
         style="fill:#ffffff;fill-opacity:1;fill-rule:evenodd;stroke:none"
         id="path4208"
         inkscape:connector-curvature="0" />
      <path
         d="m 391.9136,521.8121 c -18.167,14.8575 -30.742,31.405 -63.7095,29.9398 0,0 -17.9005,-1.8814 -36.6307,2.2297 -25.6695,5.6364 -46.6113,14.4865 -58.9298,32.4899 -3.1853,-0.3184 -9.2355,-1.2742 -13.3787,-3.1853 -4.1414,-1.9094 -7.0061,-3.1856 -12.1028,-2.8653 -5.0969,0.3206 -29.3045,-1.5945 -38.863,-4.1411 -10.1502,-2.7077 -13.553,-3.5113 -19.7464,-3.8225 -6.3706,-0.3184 -26.1224,-3.8243 -31.2191,-6.0506 -5.3572,-2.3476 -6.0261,-2.0367 -10.1111,-1.3564 -9.0278,1.5083 -22.4278,1.0174 -30.0221,-1.8289 0,0 -5.5749,-0.7982 -6.0508,-3.9033 -0.4793,-3.1048 0,-7.1691 5.0142,-7.1691 5.0162,0 15.2907,3.3466 17.9175,4.5422 -1.4335,-1.6732 -8.998,-8.0444 -21.7377,-6.4533 -0.7181,-1.4335 -4.0607,-5.0162 10.034,-15.7663 23.0627,-17.5913 56.2496,-10.5197 68.0865,-1.9114 2.1459,-1.2274 36.9496,-20.192 72.3836,-1.6713 13.6374,-8.1831 42.1869,-11.4883 66.6532,-6.4497 8.1244,1.6713 4.7798,0.9556 7.407,0.4779 12.0781,-2.198 85.4694,-6.6427 95.0057,-3.105"
         style="fill:#ffffff;fill-opacity:1;fill-rule:evenodd;stroke:none"
         id="path4210"
         inkscape:connector-curvature="0" />
      <path
         d="m 44.6295,562.9008 c -3.4979,3.1986 -8.121,-9.0765 5.0185,-24.1271 4.8846,-5.597 22.5884,-8.6607 30.0985,-7.4072 -3.1048,4.0626 -14.5684,12.6615 -11.9415,26.5181 -3.5867,0 -14.8124,-2.6268 -23.1755,5.0162"
         style="fill:#ffffff;fill-opacity:1;fill-rule:evenodd;stroke:none"
         id="path4212"
         inkscape:connector-curvature="0" />
    </g>
  </g>
</svg>
