<?xml version="1.0" encoding="UTF-8" standalone="no"?>
<!-- Created with Inkscape (http://www.inkscape.org/) -->

<svg
   xmlns:dc="http://purl.org/dc/elements/1.1/"
   xmlns:cc="http://creativecommons.org/ns#"
   xmlns:rdf="http://www.w3.org/1999/02/22-rdf-syntax-ns#"
   xmlns:svg="http://www.w3.org/2000/svg"
   xmlns="http://www.w3.org/2000/svg"
   xmlns:sodipodi="http://sodipodi.sourceforge.net/DTD/sodipodi-0.dtd"
   xmlns:inkscape="http://www.inkscape.org/namespaces/inkscape"
   width="210mm"
   height="297mm"
   viewBox="0 0 744.09448819 1052.3622047"
   id="svg3809"
   version="1.1"
   inkscape:version="0.91 r13725"
   sodipodi:docname="EyeProtection.svg">
  <defs
     id="defs3811" />
  <sodipodi:namedview
     id="base"
     pagecolor="#ffffff"
     bordercolor="#666666"
     borderopacity="1.0"
     inkscape:pageopacity="0.0"
     inkscape:pageshadow="2"
     inkscape:zoom="0.35"
     inkscape:cx="-52.142857"
     inkscape:cy="520"
     inkscape:document-units="px"
     inkscape:current-layer="layer1"
     showgrid="false"
     inkscape:window-width="1920"
     inkscape:window-height="1017"
     inkscape:window-x="-8"
     inkscape:window-y="-8"
     inkscape:window-maximized="1" />
  <metadata
     id="metadata3814">
    <rdf:RDF>
      <cc:Work
         rdf:about="">
        <dc:format>image/svg+xml</dc:format>
        <dc:type
           rdf:resource="http://purl.org/dc/dcmitype/StillImage" />
        <dc:title></dc:title>
      </cc:Work>
    </rdf:RDF>
  </metadata>
  <g
     inkscape:label="Layer 1"
     inkscape:groupmode="layer"
     id="layer1">
    <g
       id="g3763"
       transform="matrix(6.51,0,0,-6.51,-1535.1725,3135.9983)">
      <path
         d="m 293.3118,385.1793 c 23.6671,0 42.8531,19.1866 42.8531,42.8536 0,23.6673 -19.186,42.8533 -42.8531,42.8533 -23.667,3e-4 -42.8536,-19.1863 -42.8536,-42.8533 3e-4,-23.6667 19.1866,-42.8536 42.8536,-42.8536"
         style="fill:#0d7fc7;fill-opacity:1;fill-rule:evenodd;stroke:none"
         id="path3765"
         inkscape:connector-curvature="0" />
      <path
         d="m 312.9131,433.8334 c 0,0 0.9998,-0.4002 1.3998,0.5999 0.4005,1.0003 0.8002,5.7001 0.2001,7.9004 -0.5998,2.2005 -0.4,2.3003 -0.5,2.7003 -0.0998,0.4 -1.5001,4.2001 -2.4999,4.9002 -1.0001,0.7002 -2.6002,2.3004 -3.3004,3.2004 -0.6998,0.9 -8.6006,4.5 -14.0009,4.1 -5.4005,-0.3997 -11.2008,-1.4 -17.6011,-5.5006 -5.6773,-3.6363 -4.523,-10.8633 -4.4,-11.6006 0.1999,-1.1996 1.5001,-6.1001 1.5001,-6.1001 l 1.3998,0 -0.8997,3.9002 c 0,0 -2.5008,9.2004 3.7,13.0008 6.2002,3.8004 12.3007,4.8506 16.5011,4.7506 3.8146,-0.0907 6.4193,-0.2262 10.8008,-2.3502 1.995,-0.9678 2.2385,-1.3272 2.7998,-2.0004 0.25,-0.2999 0.3002,-0.8 1.3003,-1.4001 2.9928,-1.7957 3.6405,-6.2713 3.6,-6.0003 0.3004,-1.9999 1.1001,-4.6001 2e-4,-10.1005"
         style="fill:#ffffff;fill-opacity:1;fill-rule:evenodd;stroke:none"
         id="path3767"
         inkscape:connector-curvature="0" />
      <path
         d="m 307.0128,443.7842 c 0,0 -0.5408,-4.4907 1.6501,-8.0507 0.4002,-0.6503 0.65,-1.1001 0.6998,-1.4502 0.0505,-0.3501 0.4998,-0.7002 0.8502,-0.7002 0.35,3e-4 0.8498,0.3 0.6497,1.0503 -0.1996,0.7503 -1.3496,3.3999 -1.6498,3.7998 -1.0091,1.3465 -1.0738,5.4885 -0.6001,8.9011 -3.024,-3.5283 -9.2506,-6.7507 -14.3507,-6.4508 0.25,0.3501 0.65,1.0001 0.65,1.0001 0,0 -7.0007,0.6001 -9.7506,0.0501 0,3e-4 -7.5005,-1.6001 -9.4008,-2.95 0,-0.5505 0,-4.8005 0,-4.8005 0,0 0.0501,-0.4501 1.3002,-0.1 0,0.3999 0.1001,3.9005 0.1001,3.9005 0,2e-4 3.7304,2.6688 13.7007,2.4998 -0.25,-0.1499 -1.5503,-0.8501 -1.5503,-0.8501 0,3e-4 5.2421,-0.0921 5.7504,-0.0496 3.5095,0.2925 8.6748,0.9241 11.9511,4.2004"
         style="fill:#ffffff;fill-opacity:1;fill-rule:evenodd;stroke:none"
         id="path3769"
         inkscape:connector-curvature="0" />
      <path
         d="m 313.0631,429.283 0,3.1504 -16.7511,-0.0504 c 0,0 -1.2999,-1.5001 -2.9001,-1.5001 -1.6002,2e-4 -2.6002,1.6001 -3.1504,1.6001 -0.5497,0 -16.7006,0 -16.7006,0 l 0,-2.8499 c 0,0 0,-0.3501 0.75,-0.65 0.7501,-0.3002 0.7997,-0.6001 0.9496,-1.0502 0.1503,-0.4499 1.0503,-4.9502 1.0503,-4.9502 0,0 0.5,-2.7502 3.6,-3.1002 3.1002,-0.3501 6.3507,-0.15 7.1506,0.0498 2.8336,0.7084 3.35,2.9254 4.6503,5.8505 0.6001,1.3504 0.9972,1.1999 1.4502,1.1999 0.5499,0 1.1996,-0.65 1.4,-0.9499 0.2001,-0.3002 1.9999,-4.2001 1.9999,-4.2001 2e-4,0 0.7988,-2.5004 4.8506,-2.5004 1.9502,0 4.0504,0.0501 5,0.25 2.4259,0.5108 3.9249,2.1727 4.4005,4.5501 0.2002,1.0004 0.5999,3.8005 0.5999,3.8005 2e-4,0 0.2503,0.5 0.6499,0.6 0.4,0.1001 1.0001,0.5001 1.0004,0.7501"
         style="fill:#ffffff;fill-opacity:1;fill-rule:evenodd;stroke:none"
         id="path3771"
         inkscape:connector-curvature="0" />
      <path
         d="m 313.9132,430.5832 0,1.8502 c 0,0 3.2,-0.2004 3.2,-3.2003 0,3e-4 0.2002,-4.0504 -0.6998,-6.5004 -0.9003,-2.4503 -3.0005,-6.6507 -3.3001,-6.9508 -0.3005,-0.2997 -1.3006,-0.9496 -2.1002,-1.2501 -0.6826,-2.2754 -0.9502,-11.1005 -10.6509,-18.7509 -1.1016,-0.8686 -3.843,-1.1279 -4.1505,-1.15 -0.6996,-0.0499 -6.3502,-0.1001 -6.7003,0 -0.35,0.1003 -3.3001,0.3503 -4.5501,1.6999 -3.6051,3.8937 -7.4455,8.2074 -8.5505,13.1009 -0.35,1.55 -1.0502,5.3005 -1.0502,5.5505 -0.4,0.0496 -1.2501,-0.1003 -2.1498,1.3499 -2.3462,3.78 -4.3546,9.3379 -3.5005,13.7511 0.2996,1.55 1.0502,2.3998 3.0501,2.3998 3e-4,-0.3997 0,-1.7997 0,-1.7997 3e-4,0 -1.3003,-0.0502 -1.4499,-1.4502 -0.3317,-3.0971 1.0998,-8.1505 2.8499,-11.1509 0.5596,-0.959 1.2504,-1.0001 1.6503,-1.0497 0.4,-0.0505 0.6001,-0.25 0.7501,-0.75 0.1499,-0.5006 1.019,-5.3649 1.1001,-5.8508 0.176,-1.0556 0.923,-2.8632 1.5001,-4.1 1.0894,-2.3343 4.561,-7.2167 6.7504,-8.9011 1.1699,-0.8997 2.2969,-1.2996 3.8004,-1.2996 0.8502,0 6.2499,-0.2002 6.5999,-0.2002 1.3669,0 3.3203,0.7597 4.4502,1.9001 5.3509,5.4003 6.6143,8.1499 8.3508,14.4011 0.25,0.9 0.7002,3.7004 0.7002,3.7004 0,0 0.1,0.6497 0.65,0.6996 1.091,0.0992 1.3753,0.3512 2.1999,1.7002 1.6169,2.6456 2.8004,6.605 2.8004,9.5508 3e-4,0.3999 -0.1001,2.2997 -1.55,2.7002"
         style="fill:#ffffff;fill-opacity:1;fill-rule:evenodd;stroke:none"
         id="path3773"
         inkscape:connector-curvature="0" />
    </g>
  </g>
</svg>
