<?xml version="1.0" encoding="UTF-8" standalone="no"?>
<!-- Created with Inkscape (http://www.inkscape.org/) -->

<svg
   xmlns:dc="http://purl.org/dc/elements/1.1/"
   xmlns:cc="http://creativecommons.org/ns#"
   xmlns:rdf="http://www.w3.org/1999/02/22-rdf-syntax-ns#"
   xmlns:svg="http://www.w3.org/2000/svg"
   xmlns="http://www.w3.org/2000/svg"
   xmlns:sodipodi="http://sodipodi.sourceforge.net/DTD/sodipodi-0.dtd"
   xmlns:inkscape="http://www.inkscape.org/namespaces/inkscape"
   width="210mm"
   height="297mm"
   viewBox="0 0 744.09448819 1052.3622047"
   id="svg3955"
   version="1.1"
   inkscape:version="0.91 r13725"
   sodipodi:docname="Eyewash.svg">
  <defs
     id="defs3957" />
  <sodipodi:namedview
     id="base"
     pagecolor="#ffffff"
     bordercolor="#666666"
     borderopacity="1.0"
     inkscape:pageopacity="0.0"
     inkscape:pageshadow="2"
     inkscape:zoom="0.35"
     inkscape:cx="-52.142857"
     inkscape:cy="520"
     inkscape:document-units="px"
     inkscape:current-layer="layer1"
     showgrid="false"
     inkscape:window-width="1920"
     inkscape:window-height="1017"
     inkscape:window-x="-8"
     inkscape:window-y="-8"
     inkscape:window-maximized="1" />
  <metadata
     id="metadata3960">
    <rdf:RDF>
      <cc:Work
         rdf:about="">
        <dc:format>image/svg+xml</dc:format>
        <dc:type
           rdf:resource="http://purl.org/dc/dcmitype/StillImage" />
        <dc:title></dc:title>
      </cc:Work>
    </rdf:RDF>
  </metadata>
  <g
     inkscape:label="Layer 1"
     inkscape:groupmode="layer"
     id="layer1">
    <g
       id="g3843"
       transform="matrix(0.98375,0,0,-1.02875,69.428521,811.06698)">
      <path
         d="m 13.8302,654.7541 c 0,20.8157 19.1727,38.0605 39.7647,38.0605 l 489.4682,0.0936 c 20.5756,0 39.7554,-17.2452 39.7554,-38.0608 l 0,-467.9124 c 0,-20.8194 -19.1798,-38.0634 -39.7554,-38.0634 l -489.5657,0 c -20.5889,0 -39.7647,17.244 -39.7647,38.0634 l 0.0975,467.8191"
         style="fill:#006838;fill-opacity:1;fill-rule:evenodd;stroke:none"
         id="path3845"
         inkscape:connector-curvature="0" />
      <path
         d="m 516.5858,568.9916 c -2.8068,3.3211 -6.6707,7.8701 -13.1082,13.9306 l -2.0756,1.9468 c -14.074,13.2608 -33.3433,31.421 -62.5464,46.4661 -34.4478,17.7489 -75.0589,26.7423 -120.7074,26.7423 -45.6529,0 -86.266,-8.9934 -120.7131,-26.7423 C 168.2257,616.29 148.9552,598.1298 134.8843,584.869 l -2.0656,-1.9468 c -6.4468,-6.0605 -10.305,-10.6095 -13.1213,-13.9306 -5.5264,-6.5191 -5.5264,-6.5191 -21.8364,-6.5191 l 0,-15.2393 c 10.8196,0 16.839,0.3115 21.7769,2.105 5.6376,2.0435 8.6332,5.5766 12.4231,10.0474 1.5205,1.7935 3.2449,3.827 5.4828,6.2226 7.3579,-9.1656 21.6048,-25.2295 42.4281,-41.3873 18.305,-14.2021 37.9316,-25.5262 58.3268,-33.6591 25.596,-10.2061 52.4622,-15.3822 79.8495,-15.3822 27.3778,0 54.2463,5.1761 79.8361,15.3822 20.4063,8.1329 40.0291,19.457 58.333,33.6591 20.8278,16.1578 35.0714,32.2217 42.4219,41.3873 2.245,-2.3956 3.9688,-4.4291 5.4833,-6.2226 3.7999,-4.4708 6.7893,-8.0039 12.4297,-10.0474 4.9348,-1.7935 10.953,-2.105 21.7766,-2.105 l 0,15.2393 c -16.3066,0 -16.3066,0 -21.843,6.5191"
         style="fill:#ffffff;fill-opacity:1;fill-rule:evenodd;stroke:none"
         id="path3847"
         inkscape:connector-curvature="0" />
      <path
         d="m 361.5457,615.4622 c 12.1488,-11.6246 18.8397,-27.0791 18.8397,-43.5208 0,-33.9373 -28.8531,-61.5476 -64.3131,-61.5476 -17.1714,0 -33.3215,6.4009 -45.4663,18.0258 -12.1456,11.6246 -18.8331,27.0825 -18.8331,43.5218 0,16.4417 6.6875,31.8962 18.8331,43.5208 12.1448,11.628 28.2949,18.0292 45.4663,18.0292 17.1817,0 33.3239,-6.4012 45.4734,-18.0292"
         style="fill:#006838;fill-opacity:1;fill-rule:evenodd;stroke:none"
         id="path3849"
         inkscape:connector-curvature="0" />
      <path
         d="m 192.5546,162.3677 c 0,0 35.502,89.5663 38.9095,96.5897 75.6323,4.1045 105.4576,56.8012 105.4576,56.8012 l -237.611,88.0613 c 0,0 -14.9584,-58.1952 38.1194,-109.9179 -2.412,-7.3902 -39.0858,-96.5324 -39.0858,-96.5324 l 94.2103,-35.0019"
         style="fill:#ffffff;fill-opacity:1;fill-rule:evenodd;stroke:none"
         id="path3851"
         inkscape:connector-curvature="0" />
      <path
         d="m 279.4416,440.8299 c -0.8487,-5.9074 2.2128,-15.5888 2.2128,-15.5888 0,0 9.3245,5.5238 12.4259,10.5845 1.1361,1.853 1.8927,3.062 2.3343,4.1582 1.6864,4.2114 -0.513,8.9317 -4.9096,10.5463 -4.3993,1.6152 -9.3319,-0.4901 -11.0194,-4.6982 -0.4665,-1.1588 -0.8521,-3.6584 -1.044,-5.002"
         style="fill:#ffffff;fill-opacity:1;fill-rule:evenodd;stroke:none"
         id="path3853"
         inkscape:connector-curvature="0" />
      <path
         d="m 319.7341,424.6628 c -0.8487,-5.9097 2.213,-15.5818 2.213,-15.5818 0,0 9.3212,5.5231 12.4232,10.584 1.1352,1.8488 1.8992,3.0581 2.3368,4.1551 1.6903,4.208 -0.5161,8.9311 -4.9096,10.5465 -4.4002,1.6118 -9.3347,-0.4903 -11.0264,-4.7018 -0.4629,-1.1591 -0.8417,-3.6581 -1.037,-5.002"
         style="fill:#ffffff;fill-opacity:1;fill-rule:evenodd;stroke:none"
         id="path3855"
         inkscape:connector-curvature="0" />
      <path
         d="m 300.6726,387.0187 c -0.8484,-5.9043 2.2133,-15.5888 2.2133,-15.5888 0,0 9.3291,5.5227 12.4228,10.584 1.1412,1.8623 1.8989,3.0676 2.3369,4.1615 1.6843,4.2109 -0.5156,8.9351 -4.9093,10.5463 -4.4006,1.6186 -9.3311,-0.4873 -11.0189,-4.6981 -0.4666,-1.1628 -0.8512,-3.6553 -1.0448,-5.0049"
         style="fill:#ffffff;fill-opacity:1;fill-rule:evenodd;stroke:none"
         id="path3857"
         inkscape:connector-curvature="0" />
      <path
         d="m 341.322,369.8232 c -1.3445,-5.8229 0.8937,-15.7133 0.8937,-15.7133 0,0 9.76,4.7857 13.2783,9.5972 1.2861,1.755 2.1476,2.8985 2.6697,3.9609 2.0376,4.0612 0.248,8.9416 -4.0017,10.8907 -4.2499,1.9491 -9.341,0.231 -11.3779,-3.8302 -0.5604,-1.1179 -1.1554,-3.5864 -1.4621,-4.9053"
         style="fill:#ffffff;fill-opacity:1;fill-rule:evenodd;stroke:none"
         id="path3859"
         inkscape:connector-curvature="0" />
      <path
         d="m 361.5905,410.468 c -1.3445,-5.8237 0.889,-15.7082 0.889,-15.7082 0,0 9.7585,4.7863 13.2772,9.5913 1.286,1.7555 2.1483,2.9053 2.6767,3.9609 2.0361,4.068 0.2412,8.9416 -4.0017,10.8907 -4.2494,1.9494 -9.3486,0.2316 -11.3847,-3.8302 -0.5551,-1.1179 -1.1498,-3.5804 -1.4565,-4.9045"
         style="fill:#ffffff;fill-opacity:1;fill-rule:evenodd;stroke:none"
         id="path3861"
         inkscape:connector-curvature="0" />
      <path
         d="m 383.7861,451.1117 c -1.338,-5.8237 0.8946,-15.7081 0.8946,-15.7081 0,0 9.7585,4.7831 13.2704,9.5879 1.2932,1.7589 2.1484,2.9052 2.6827,3.9642 2.0378,4.0646 0.2421,8.9416 -4.0071,10.8907 -4.2499,1.9494 -9.3415,0.2345 -11.3779,-3.8299 -0.5622,-1.1216 -1.156,-3.583 -1.4627,-4.9048"
         style="fill:#ffffff;fill-opacity:1;fill-rule:evenodd;stroke:none"
         id="path3863"
         inkscape:connector-curvature="0" />
      <path
         d="m 369.705,360.0079 c -2.4475,-5.4859 -2.16,-15.5888 -2.16,-15.5888 0,0 10.5157,2.9735 14.9031,7.0662 1.6056,1.506 2.6768,2.4806 3.3945,3.424 2.7938,3.6368 1.9707,8.748 -1.828,11.4156 -3.7996,2.668 -9.1327,1.8803 -11.9197,-1.7492 -0.7708,-1.0063 -1.8355,-3.3177 -2.3899,-4.5678"
         style="fill:#ffffff;fill-opacity:1;fill-rule:evenodd;stroke:none"
         id="path3865"
         inkscape:connector-curvature="0" />
      <path
         d="m 396.2477,393.9537 c -2.448,-5.4794 -2.1611,-15.5946 -2.1611,-15.5946 0,0 10.5165,2.9804 14.8978,7.079 1.612,1.4995 2.6759,2.4741 3.4001,3.4237 2.7885,3.63 1.9647,8.7409 -1.8348,11.4089 -3.7919,2.6682 -9.1318,1.8867 -11.9191,-1.755 -0.7702,-0.9941 -1.8278,-3.312 -2.3829,-4.562"
         style="fill:#ffffff;fill-opacity:1;fill-rule:evenodd;stroke:none"
         id="path3867"
         inkscape:connector-curvature="0" />
      <path
         d="m 421.5762,437.1409 c -2.4415,-5.4862 -2.1547,-15.5956 -2.1547,-15.5956 0,0 10.5169,2.9746 14.9038,7.0767 1.5984,1.4995 2.6688,2.4735 3.3944,3.4208 2.7879,3.6357 1.9645,8.7438 -1.8343,11.4117 -3.7927,2.6677 -9.1337,1.8842 -11.9196,-1.7526 -0.7708,-0.9995 -1.8284,-3.3143 -2.3896,-4.561"
         style="fill:#ffffff;fill-opacity:1;fill-rule:evenodd;stroke:none"
         id="path3869"
         inkscape:connector-curvature="0" />
      <path
         d="m 443.2941,475.4764 c -2.4475,-5.4865 -2.1603,-15.5957 -2.1603,-15.5957 0,0 10.5162,2.9741 14.9029,7.0727 1.6066,1.503 2.6705,2.4775 3.3947,3.4243 2.7902,3.6334 1.971,8.7446 -1.828,11.412 -3.7999,2.6683 -9.1318,1.8839 -11.9197,-1.7524 -0.771,-0.9998 -1.8354,-3.3142 -2.3896,-4.5609"
         style="fill:#ffffff;fill-opacity:1;fill-rule:evenodd;stroke:none"
         id="path3871"
         inkscape:connector-curvature="0" />
      <path
         d="m 466.9356,509.1914 c -2.4418,-5.4831 -2.1543,-15.5926 -2.1543,-15.5926 0,0 10.5097,2.9741 14.8966,7.073 1.6052,1.4996 2.6753,2.4741 3.407,3.4209 2.781,3.6366 1.959,8.7446 -1.8409,11.412 -3.799,2.668 -9.125,1.8839 -11.9197,-1.749 -0.771,-1.0029 -1.8286,-3.3145 -2.3887,-4.5643"
         style="fill:#ffffff;fill-opacity:1;fill-rule:evenodd;stroke:none"
         id="path3873"
         inkscape:connector-curvature="0" />
      <path
         d="m 261.1043,401.8014 c -0.8487,-5.9043 2.2133,-15.5889 2.2133,-15.5889 0,0 9.3251,5.5233 12.4257,10.5849 1.1355,1.855 1.8966,3.0611 2.3335,4.1607 1.6877,4.2114 -0.512,8.9351 -4.9082,10.5468 -4.4005,1.6124 -9.3325,-0.4935 -11.0192,-4.7046 -0.4665,-1.1557 -0.852,-3.6556 -1.0451,-4.9989"
         style="fill:#ffffff;fill-opacity:1;fill-rule:evenodd;stroke:none"
         id="path3875"
         inkscape:connector-curvature="0" />
      <path
         d="m 239.3889,455.3793 c -0.8481,-5.9077 2.2133,-15.5888 2.2133,-15.5888 0,0 9.3252,5.5227 12.4254,10.5842 1.1367,1.8522 1.8973,3.0617 2.3344,4.1573 1.6871,4.212 -0.5089,8.9317 -4.9091,10.5475 -4.3999,1.6151 -9.3314,-0.491 -11.0191,-4.6987 -0.4635,-1.1588 -0.849,-3.6584 -1.0449,-5.0015"
         style="fill:#ffffff;fill-opacity:1;fill-rule:evenodd;stroke:none"
         id="path3877"
         inkscape:connector-curvature="0" />
      <path
         d="m 199.3414,468.078 c -0.8521,-5.9072 2.2096,-15.5855 2.2096,-15.5855 0,0 9.3242,5.5233 12.4251,10.584 1.1355,1.853 1.8966,3.0614 2.3337,4.1587 1.6878,4.208 -0.5094,8.9311 -4.9084,10.5463 -4.4003,1.6152 -9.3325,-0.4901 -11.0192,-4.7012 -0.464,-1.1591 -0.8489,-3.6582 -1.0408,-5.0023"
         style="fill:#ffffff;fill-opacity:1;fill-rule:evenodd;stroke:none"
         id="path3879"
         inkscape:connector-curvature="0" />
      <path
         d="m 152.8778,482.8085 c -0.2404,-5.961 3.797,-15.3082 3.797,-15.3082 0,0 8.7137,6.3737 11.2833,11.6997 0.9397,1.9528 1.5738,3.2247 1.8959,4.3585 1.25,4.3455 -1.4228,8.8401 -5.9636,10.0341 -4.5431,1.1962 -9.2398,-1.3623 -10.4865,-5.711 -0.343,-1.1962 -0.4697,-3.7179 -0.5261,-5.0731"
         style="fill:#ffffff;fill-opacity:1;fill-rule:evenodd;stroke:none"
         id="path3881"
         inkscape:connector-curvature="0" />
      <path
         d="m 100.8777,452.2674 c 1.1678,-5.8575 7.3012,-14.0952 7.3012,-14.0952 0,0 6.9911,8.0872 8.2377,13.833 0.4575,2.1019 0.7736,3.4798 0.8226,4.6548 0.1928,4.5048 -3.4659,8.3066 -8.1734,8.4883 -4.7063,0.184 -8.6785,-3.3179 -8.8713,-7.8233 -0.055,-1.2399 0.4147,-3.7267 0.6832,-5.0576"
         style="fill:#ffffff;fill-opacity:1;fill-rule:evenodd;stroke:none"
         id="path3883"
         inkscape:connector-curvature="0" />
      <path
         d="m 96.7742,498.2224 c 1.1688,-5.8575 7.3012,-14.0927 7.3012,-14.0927 0,0 6.992,8.085 8.2389,13.8305 0.4564,2.1022 0.773,3.4801 0.826,4.6542 0.192,4.5054 -3.4698,8.3072 -8.1768,8.4912 -4.7069,0.1851 -8.6782,-3.3202 -8.8716,-7.8256 -0.0524,-1.2402 0.4179,-3.7264 0.6823,-5.0576"
         style="fill:#ffffff;fill-opacity:1;fill-rule:evenodd;stroke:none"
         id="path3885"
         inkscape:connector-curvature="0" />
      <path
         d="m 102.5651,610.9169 c 1.1685,-5.8581 7.3012,-14.0927 7.3012,-14.0927 0,0 6.9908,8.0883 8.2384,13.8305 0.4566,2.1053 0.7733,3.4835 0.8251,4.6547 0.1925,4.5054 -3.4687,8.3067 -8.1762,8.4912 -4.7064,0.184 -8.6789,-3.3179 -8.8708,-7.8256 -0.053,-1.2404 0.4176,-3.7241 0.6823,-5.0581"
         style="fill:#ffffff;fill-opacity:1;fill-rule:evenodd;stroke:none"
         id="path3887"
         inkscape:connector-curvature="0" />
      <path
         d="m 103.7103,666.6316 c 1.1722,-5.8578 7.3012,-14.0956 7.3012,-14.0956 0,0 6.992,8.0878 8.2386,13.8297 0.4595,2.1058 0.7767,3.4837 0.8258,4.655 0.1922,4.508 -3.4693,8.3101 -8.1766,8.4912 -4.7063,0.1843 -8.6794,-3.3177 -8.8713,-7.8222 -0.0527,-1.2407 0.4179,-3.727 0.6823,-5.0581"
         style="fill:#ffffff;fill-opacity:1;fill-rule:evenodd;stroke:none"
         id="path3889"
         inkscape:connector-curvature="0" />
      <path
         d="m 145.2112,647.2312 c 1.1688,-5.8578 7.3012,-14.0927 7.3012,-14.0927 0,0 6.9914,8.0878 8.2387,13.83 0.4566,2.1055 0.7735,3.4835 0.822,4.6545 0.193,4.5056 -3.4656,8.3075 -8.1726,8.492 -4.7094,0.1842 -8.6782,-3.318 -8.8716,-7.8265 -0.0552,-1.2398 0.4153,-3.7238 0.6823,-5.0573"
         style="fill:#ffffff;fill-opacity:1;fill-rule:evenodd;stroke:none"
         id="path3891"
         inkscape:connector-curvature="0" />
      <path
         d="m 143.9515,441.9334 c -0.2418,-5.9609 3.7959,-15.3082 3.7959,-15.3082 0,0 8.7148,6.3726 11.2839,11.6997 0.9394,1.9528 1.5729,3.2236 1.8961,4.3586 1.2503,4.3481 -1.4236,8.8407 -5.9633,10.0341 -4.5431,1.1962 -9.2404,-1.3624 -10.4865,-5.7082 -0.3441,-1.199 -0.4702,-3.7207 -0.5261,-5.076"
         style="fill:#ffffff;fill-opacity:1;fill-rule:evenodd;stroke:none"
         id="path3893"
         inkscape:connector-curvature="0" />
      <path
         d="m 183.6573,430.206 c -0.8482,-5.9077 2.2096,-15.5897 2.2096,-15.5897 0,0 9.3248,5.5235 12.4268,10.5876 1.1352,1.8525 1.8955,3.0615 2.336,4.1576 1.6877,4.2086 -0.5119,8.9317 -4.9122,10.5472 -4.3965,1.6154 -9.331,-0.491 -11.0191,-4.7013 -0.4632,-1.1594 -0.8481,-3.6584 -1.0411,-5.0014"
         style="fill:#ffffff;fill-opacity:1;fill-rule:evenodd;stroke:none"
         id="path3895"
         inkscape:connector-curvature="0" />
      <path
         d="m 222.0188,416.5849 c -0.8481,-5.9111 2.213,-15.5956 2.213,-15.5956 0,0 9.3251,5.5236 12.426,10.584 1.133,1.8623 1.8929,3.0685 2.3334,4.1615 1.6872,4.2112 -0.5125,8.9348 -4.9084,10.5469 -4.4,1.6146 -9.3354,-0.4876 -11.02,-4.6987 -0.4669,-1.1614 -0.8521,-3.6547 -1.044,-4.9981"
         style="fill:#ffffff;fill-opacity:1;fill-rule:evenodd;stroke:none"
         id="path3897"
         inkscape:connector-curvature="0" />
      <path
         d="m 345.7536,594.6908 c 5.2229,-6.2297 8.3498,-14.1401 8.3498,-22.7494 0,-20.1008 -17.03,-36.396 -38.0311,-36.396 -20.9965,0 -38.0179,16.2952 -38.0179,36.396 0,20.0999 17.0214,36.3954 38.0179,36.3954 1.7686,0 3.4988,-0.1157 5.196,-0.3373 l -2.0566,-32.9406 26.5419,19.6319"
         style="fill:#ffffff;fill-opacity:1;fill-rule:evenodd;stroke:none"
         id="path3899"
         inkscape:connector-curvature="0" />
      <path
         d="m 318.1482,490.4218 c -94.4618,0 -154.2153,67.1014 -169.3041,86.2089 23.8332,22.3776 61.2876,55.4233 132.624,64.0707 -26.6887,-12.3554 -45.1372,-38.5351 -45.1372,-68.76 0,-20.388 8.2939,-39.5538 23.3569,-53.972 15.0625,-14.4173 35.0881,-22.3554 56.3845,-22.3554 21.3004,0 41.328,7.9381 56.3945,22.3554 15.0596,14.4182 23.3563,33.584 23.3563,53.972 0,20.387 -8.2967,39.5563 -23.3563,53.9739 -6.7762,6.4794 -14.5508,11.6495 -22.9969,15.3799 74.8281,-7.6039 113.5488,-41.7345 137.9761,-64.6645 -15.0926,-19.1075 -74.8457,-86.2089 -169.2978,-86.2089"
         style="fill:#006838;fill-opacity:1;fill-rule:evenodd;stroke:none"
         id="path3901"
         inkscape:connector-curvature="0" />
    </g>
  </g>
</svg>
