<?xml version="1.0" encoding="UTF-8" standalone="no"?>
<!-- Created with Inkscape (http://www.inkscape.org/) -->

<svg
   xmlns:dc="http://purl.org/dc/elements/1.1/"
   xmlns:cc="http://creativecommons.org/ns#"
   xmlns:rdf="http://www.w3.org/1999/02/22-rdf-syntax-ns#"
   xmlns:svg="http://www.w3.org/2000/svg"
   xmlns="http://www.w3.org/2000/svg"
   xmlns:sodipodi="http://sodipodi.sourceforge.net/DTD/sodipodi-0.dtd"
   xmlns:inkscape="http://www.inkscape.org/namespaces/inkscape"
   width="210mm"
   height="297mm"
   viewBox="0 0 744.09448819 1052.3622047"
   id="svg4154"
   version="1.1"
   inkscape:version="0.91 r13725"
   sodipodi:docname="FireExtinguisher.svg">
  <defs
     id="defs4156" />
  <sodipodi:namedview
     id="base"
     pagecolor="#ffffff"
     bordercolor="#666666"
     borderopacity="1.0"
     inkscape:pageopacity="0.0"
     inkscape:pageshadow="2"
     inkscape:zoom="0.35"
     inkscape:cx="-52.142857"
     inkscape:cy="520"
     inkscape:document-units="px"
     inkscape:current-layer="layer1"
     showgrid="false"
     inkscape:window-width="1920"
     inkscape:window-height="1017"
     inkscape:window-x="-8"
     inkscape:window-y="-8"
     inkscape:window-maximized="1" />
  <metadata
     id="metadata4159">
    <rdf:RDF>
      <cc:Work
         rdf:about="">
        <dc:format>image/svg+xml</dc:format>
        <dc:type
           rdf:resource="http://purl.org/dc/dcmitype/StillImage" />
        <dc:title></dc:title>
      </cc:Work>
    </rdf:RDF>
  </metadata>
  <g
     inkscape:label="Layer 1"
     inkscape:groupmode="layer"
     id="layer1">
    <g
       id="g4096"
       transform="matrix(1.435,0,0,-1.435,-51.997986,970.11299)">
      <path
         d="m 102.0617,598.9873 c 0,9.0382 8.1604,16.5455 16.9024,16.5455 l 356.2161,6e-4 c 8.742,0 16.8817,-7.4673 16.8817,-16.5064 l 0,-356.9681 c 0,-9.0386 -8.1397,-16.526 -16.8817,-16.526 l -356.2572,0 c -8.742,0 -16.8613,7.4872 -16.8613,16.526 l 0,356.9284"
         style="fill:#ed1c24;fill-opacity:1;fill-rule:evenodd;stroke:none"
         id="path4098"
         inkscape:connector-curvature="0" />
      <path
         d="m 470.3939,501.0795 c 0,0 -38.0186,11.6722 -58.5,75.9435 -9.5868,-23.4626 -17.8175,-80.3398 58.5,-119.0667 0,1.0304 0,43.1229 0,43.1232"
         style="fill:#ffffff;fill-opacity:1;fill-rule:evenodd;stroke:none"
         id="path4100"
         inkscape:connector-curvature="0" />
      <path
         d="m 463.3792,433.5114 c 0,0 -36.4756,6.5912 -60.6055,59.8771 -7.4226,16.3945 -22.707,59.3269 -83.0498,59.3269 17.875,-13.3813 26.83,-26.9031 38.1583,-53.8339 34.0274,-80.8954 97.4707,-69.1634 105.497,-65.3701"
         style="fill:#ffffff;fill-opacity:1;fill-rule:evenodd;stroke:none"
         id="path4102"
         inkscape:connector-curvature="0" />
      <path
         d="m 470.3939,397.3935 c 0,0 -74.3525,6.4539 -135.2393,88.8537 3e-4,-104.7938 131.6855,-129.496 135.2393,-130.191 0,3.5699 0,41.337 0,41.3373"
         style="fill:#ffffff;fill-opacity:1;fill-rule:evenodd;stroke:none"
         id="path4104"
         inkscape:connector-curvature="0" />
      <path
         d="m 463.3792,327.7653 c 0,0 -38.2138,3.8046 -76.3163,42.5732 -35.6337,36.2557 -76.5354,22.8019 -90.3469,11.5356 17.4894,1.5559 37.6906,-9.9799 63.6916,-35.4314 45.6407,-44.6785 98.7636,-22.797 102.9716,-18.6774"
         style="fill:#ffffff;fill-opacity:1;fill-rule:evenodd;stroke:none"
         id="path4106"
         inkscape:connector-curvature="0" />
      <path
         d="m 470.3939,299.2694 c 0,0 -80.5451,-11.9528 -133.2746,35.3622 -1.8385,5.4006 10.1018,-78.8281 133.2746,-74.1588 0,2.4718 0,38.7963 0,38.7966"
         style="fill:#ffffff;fill-opacity:1;fill-rule:evenodd;stroke:none"
         id="path4108"
         inkscape:connector-curvature="0" />
      <path
         d="m 226.724,578.3961 -26.795,0 2.1047,-7.9639 -23.9905,0 -43.91,-27.1928 c 0,0 -7.5753,-5.3563 -7.5753,-14.6953 0,-9.3376 0,-21.6981 0,-21.6981 l 9.8203,0 0,8.2409 c 0,0 -0.4218,2.8831 2.5254,4.6678 2.9463,1.7867 42.5069,26.5062 42.5069,26.5062 l 17.536,3e-4 -3.2967,-3.2264 0,-20.5319 -8.4864,0 c 0,2e-4 -31.5646,0.7322 -31.5646,-29.2527 l 3e-4,-232.7772 c 0,0 115.4568,-2e-4 115.5966,-2e-4 0.1406,2e-4 0,231.9542 0,231.9542 0,0 -1.5449,29.9373 -27.7765,29.9373 l -11.7841,2e-4 0,23.8967 14.3084,0 12.0657,4.3945 0,15.3819 -10.5214,4.5309 -22.7268,0 1.963,7.8276"
         style="fill:#ffffff;fill-opacity:1;fill-rule:evenodd;stroke:none"
         id="path4110"
         inkscape:connector-curvature="0" />
      <path
         d="m 251.8362,305.9291 0,157.932 -77.1591,0 0,-157.932 77.1591,0"
         style="fill:#ed1c24;fill-opacity:1;fill-rule:evenodd;stroke:none"
         id="path4112"
         inkscape:connector-curvature="0" />
      <path
         d="m 247.3469,459.7415 0,-149.6925 -68.1806,0 0,149.6925 68.1806,0"
         style="fill:#ffffff;fill-opacity:1;fill-rule:evenodd;stroke:none"
         id="path4114"
         inkscape:connector-curvature="0" />
    </g>
  </g>
</svg>
