<?xml version="1.0" encoding="UTF-8" standalone="no"?>
<!-- Created with Inkscape (http://www.inkscape.org/) -->

<svg
   xmlns:dc="http://purl.org/dc/elements/1.1/"
   xmlns:cc="http://creativecommons.org/ns#"
   xmlns:rdf="http://www.w3.org/1999/02/22-rdf-syntax-ns#"
   xmlns:svg="http://www.w3.org/2000/svg"
   xmlns="http://www.w3.org/2000/svg"
   xmlns:sodipodi="http://sodipodi.sourceforge.net/DTD/sodipodi-0.dtd"
   xmlns:inkscape="http://www.inkscape.org/namespaces/inkscape"
   width="210mm"
   height="297mm"
   viewBox="0 0 744.09448819 1052.3622047"
   id="svg4068"
   version="1.1"
   inkscape:version="0.91 r13725"
   sodipodi:docname="FirstAid.svg">
  <defs
     id="defs4070" />
  <sodipodi:namedview
     id="base"
     pagecolor="#ffffff"
     bordercolor="#666666"
     borderopacity="1.0"
     inkscape:pageopacity="0.0"
     inkscape:pageshadow="2"
     inkscape:zoom="0.35"
     inkscape:cx="-52.142857"
     inkscape:cy="520"
     inkscape:document-units="px"
     inkscape:current-layer="layer1"
     showgrid="false"
     inkscape:window-width="1920"
     inkscape:window-height="1017"
     inkscape:window-x="-8"
     inkscape:window-y="-8"
     inkscape:window-maximized="1" />
  <metadata
     id="metadata4073">
    <rdf:RDF>
      <cc:Work
         rdf:about="">
        <dc:format>image/svg+xml</dc:format>
        <dc:type
           rdf:resource="http://purl.org/dc/dcmitype/StillImage" />
        <dc:title></dc:title>
      </cc:Work>
    </rdf:RDF>
  </metadata>
  <g
     inkscape:label="Layer 1"
     inkscape:groupmode="layer"
     id="layer1">
    <g
       id="g4037"
       transform="matrix(2.52125,0,0,-2.52125,-635.82454,1146.2603)">
      <path
         d="m 295.4769,417.5016 198.9919,0 c 6.0806,0 11.0548,-4.3296 11.0548,-9.6219 l 0,-201.8591 c 0,-5.2923 -4.9742,-9.6219 -11.0548,-9.6219 l -198.9919,0 c -6.0806,0 -11.0554,4.3296 -11.0554,9.6219 l 0,201.8591 c 0,5.2923 4.9748,9.6219 11.0554,9.6219"
         style="fill:#006838;fill-opacity:1;fill-rule:evenodd;stroke:none"
         id="path4039"
         inkscape:connector-curvature="0" />
      <path
         d="m 482.3271,335.3471 -57.5297,0 0,57.4784 -57.5345,0 0,-57.4784 -57.5336,0 0,-57.4787 57.5336,0 0,-57.4841 57.5345,0 0,57.4841 57.5297,0 0,57.4787"
         style="fill:#ffffff;fill-opacity:1;fill-rule:evenodd;stroke:none"
         id="path4041"
         inkscape:connector-curvature="0" />
    </g>
  </g>
</svg>
