<?xml version="1.0" encoding="UTF-8" standalone="no"?>
<!-- Created with Inkscape (http://www.inkscape.org/) -->

<svg
   xmlns:dc="http://purl.org/dc/elements/1.1/"
   xmlns:cc="http://creativecommons.org/ns#"
   xmlns:rdf="http://www.w3.org/1999/02/22-rdf-syntax-ns#"
   xmlns:svg="http://www.w3.org/2000/svg"
   xmlns="http://www.w3.org/2000/svg"
   xmlns:sodipodi="http://sodipodi.sourceforge.net/DTD/sodipodi-0.dtd"
   xmlns:inkscape="http://www.inkscape.org/namespaces/inkscape"
   width="210mm"
   height="297mm"
   viewBox="0 0 744.09448819 1052.3622047"
   id="svg3502"
   version="1.1"
   inkscape:version="0.91 r13725"
   sodipodi:docname="Gloves.svg">
  <defs
     id="defs3504" />
  <sodipodi:namedview
     id="base"
     pagecolor="#ffffff"
     bordercolor="#666666"
     borderopacity="1.0"
     inkscape:pageopacity="0.0"
     inkscape:pageshadow="2"
     inkscape:zoom="0.35"
     inkscape:cx="-52.142857"
     inkscape:cy="520"
     inkscape:document-units="px"
     inkscape:current-layer="layer1"
     showgrid="false"
     inkscape:window-width="1920"
     inkscape:window-height="1017"
     inkscape:window-x="-8"
     inkscape:window-y="-8"
     inkscape:window-maximized="1" />
  <metadata
     id="metadata3507">
    <rdf:RDF>
      <cc:Work
         rdf:about="">
        <dc:format>image/svg+xml</dc:format>
        <dc:type
           rdf:resource="http://purl.org/dc/dcmitype/StillImage" />
        <dc:title></dc:title>
      </cc:Work>
    </rdf:RDF>
  </metadata>
  <g
     inkscape:label="Layer 1"
     inkscape:groupmode="layer"
     id="layer1">
    <g
       id="g3413"
       transform="matrix(6.51,0,0,-6.51,-1549.4582,3130.284)">
      <path
         d="m 293.3118,385.1793 c 23.6671,0 42.8531,19.1866 42.8531,42.8536 0,23.6673 -19.186,42.8533 -42.8531,42.8533 -23.667,3e-4 -42.8536,-19.1863 -42.8536,-42.8533 3e-4,-23.6667 19.1866,-42.8536 42.8536,-42.8536"
         style="fill:#0d7fc7;fill-opacity:1;fill-rule:evenodd;stroke:none"
         id="path3415"
         inkscape:connector-curvature="0" />
      <path
         d="m 285.3113,391.1306 c 4.3498,1.9497 12.2843,5.2728 21.6012,7.5507 1.8873,0.4612 1.163,1.8887 0.9501,2.3998 -0.25,0.6004 -16.351,39.0523 -16.351,39.0523 0,3e-4 -0.73,1.8003 -2.5498,1.8003 -0.7002,3e-4 -2.0007,-0.6497 -2.0007,-1.6001 3e-4,-0.0862 -0.1284,-0.5259 -0.008,-0.9522 0.6466,-2.2926 2.9081,-8.3982 2.9081,-8.3982 3e-4,0 0.2038,-0.938 -0.1497,-1.15 -0.3013,-0.1811 -0.4991,0.0972 -0.6505,0.4 l -4.2001,11.1503 c 0,0 -0.9,2.3505 -2.7003,2.3505 -1.7997,3e-4 -2.5001,-1.9502 -2.5001,-2.5503 2e-4,-0.6001 0.2004,-1.3499 0.3004,-1.6503 0.0995,-0.2997 3.75,-11.1005 3.75,-11.1005 0.1003,-0.4 0.3501,-1.3 0.1,-1.4499 -0.2497,-0.1503 -0.5,0.1499 -0.6497,0.5499 -0.1505,0.4 -3.9004,10.7504 -4.0005,10.9508 -0.1001,0.2001 -0.4504,1.6497 -2.0001,1.6497 -1.5503,3e-4 -2.3502,-1.5 -2.3502,-2.5497 3e-4,-1.0503 0.25,-2.2504 0.3999,-2.6 0.15,-0.35 4.2004,-11.2008 4.2004,-11.2008 0,0 0.2498,-0.8002 -0.0499,-1.0502 -0.3002,-0.25 -0.75,0.2996 -0.9005,0.6001 -0.1497,0.2996 -3.9501,9.7503 -3.9501,9.7503 0,3e-4 -0.6996,1.6501 -2.0497,1.6501 -1.3502,0 -2.5504,-1.1999 -2.5504,-3.1499 0,-1.025 0.1143,-0.7019 0.2999,-2.0001 l 13.2509,-37.7025 c 0,0 0.3999,-1.4 1.8501,-0.7501"
         style="fill:#ffffff;fill-opacity:1;fill-rule:evenodd;stroke:none"
         id="path3417"
         inkscape:connector-curvature="0" />
      <path
         d="m 305.4628,411.7323 1.1002,-2.5007 7.5999,1.8002 c 0,0 1.3003,0.1001 1.0001,2.2502 -0.2996,2.1503 -2.5498,13.1508 -2.5498,13.1508 0,2e-4 -1.1236,6.9443 -1.4006,14.0011 -0.1995,5.1001 -0.35,14.7005 -0.35,14.7005 2e-4,0 0.2001,6.6005 -4.4502,6.6005 -1.6123,2e-4 -2.5497,-0.6999 -2.5497,-0.6999 -0.0505,0.5 -0.8501,3.9002 -3.9005,3.9002 -3.2065,0 -3.6,-2.8001 -3.6,-2.8001 -0.3501,0.25 -0.8501,1.1498 -2.5007,1.1498 -4.5629,2e-4 -4.4501,-4.3501 -4.4501,-4.3501 -0.2997,0.2503 -0.8501,1.0001 -2.1002,0.9502 3e-4,0 -4.1497,0.0462 -4.1497,-5.4003 0,-1.8499 0.0995,-9.4507 0.0995,-9.4507 0,0 1.8003,-0.7501 2.0004,-1.1001 0.0499,0.5003 0,11.0505 0,11.0505 0,0 -0.0501,2.8503 2.1002,2.8503 1.7031,0 1.5001,-2.0498 1.5001,-2.0498 l 0,-9.6508 c 0,0 -0.0504,-1.5001 0.9502,-1.5001 1.0001,0 1.1497,1.3998 1.1497,1.3998 l 0,12.2513 c 0,0 -0.0501,2.85 2.2003,2.85 2.2997,2e-4 2.0001,-2.8503 2.0001,-2.8503 l 0,-7.2005 c 0,0 0.1497,-1.6002 1.2498,-1.6002 1.15,0 1.15,1.6002 1.15,1.6002 l 0,9.9507 c 0,0 0,1.9998 2.2003,1.9998 1.7033,3e-4 1.9003,-2.1002 1.9003,-2.1002 l 0,-10.1001 c 0,0 0.15,-1.5004 1.2501,-1.5004 1.1001,0 1.2498,1.0503 1.2498,1.4001 3e-4,0.3501 0,5.4003 0,5.4003 3e-4,2e-4 -0.25,2.6504 2.1002,2.6504 2.3502,2e-4 2.1504,-3 2.1504,-3 l 2e-4,-14.8013 c 0,0 1.1498,-13.7007 1.2498,-14.9508 0.1001,-1.2498 2.2998,-12.2006 2.5498,-12.6508 -0.4496,-0.1 -5.7501,-0.9501 -6.7499,-1.6497"
         style="fill:#ffffff;fill-opacity:1;fill-rule:evenodd;stroke:none"
         id="path3419"
         inkscape:connector-curvature="0" />
      <path
         d="m 301.0122,421.1328 1.7002,-2.7003 2.6002,15.5007 c 0,0 0.2497,1.2501 0.2497,2.1002 0,0.4502 -0.5332,5.9003 -5.15,5.9003 -2.7249,3e-4 -4.0923,-2.7671 -4.1504,-2.9004 -0.3498,-0.7996 -1.4999,-4.1499 -1.4999,-4.1499 l 1.1002,-2.1501 1.6996,4.9502 c 0,0 0.6001,2.2504 2.9004,2.2504 2.3006,3e-4 3.2001,-2.7003 3.2001,-4.1505 3e-4,-1.4502 -2.6504,-14.6509 -2.6501,-14.6506"
         style="fill:#ffffff;fill-opacity:1;fill-rule:evenodd;stroke:none"
         id="path3421"
         inkscape:connector-curvature="0" />
    </g>
  </g>
</svg>
