<?xml version="1.0" encoding="UTF-8" standalone="no"?>
<!-- Created with Inkscape (http://www.inkscape.org/) -->

<svg
   xmlns:dc="http://purl.org/dc/elements/1.1/"
   xmlns:cc="http://creativecommons.org/ns#"
   xmlns:rdf="http://www.w3.org/1999/02/22-rdf-syntax-ns#"
   xmlns:svg="http://www.w3.org/2000/svg"
   xmlns="http://www.w3.org/2000/svg"
   xmlns:sodipodi="http://sodipodi.sourceforge.net/DTD/sodipodi-0.dtd"
   xmlns:inkscape="http://www.inkscape.org/namespaces/inkscape"
   width="210mm"
   height="297mm"
   viewBox="0 0 744.09448819 1052.3622047"
   id="svg3731"
   version="1.1"
   inkscape:version="0.91 r13725"
   sodipodi:docname="HearingProtection.svg">
  <defs
     id="defs3733" />
  <sodipodi:namedview
     id="base"
     pagecolor="#ffffff"
     bordercolor="#666666"
     borderopacity="1.0"
     inkscape:pageopacity="0.0"
     inkscape:pageshadow="2"
     inkscape:zoom="0.35"
     inkscape:cx="-52.142857"
     inkscape:cy="520"
     inkscape:document-units="px"
     inkscape:current-layer="layer1"
     showgrid="false"
     inkscape:window-width="1920"
     inkscape:window-height="1017"
     inkscape:window-x="-8"
     inkscape:window-y="-8"
     inkscape:window-maximized="1" />
  <metadata
     id="metadata3736">
    <rdf:RDF>
      <cc:Work
         rdf:about="">
        <dc:format>image/svg+xml</dc:format>
        <dc:type
           rdf:resource="http://purl.org/dc/dcmitype/StillImage" />
        <dc:title></dc:title>
      </cc:Work>
    </rdf:RDF>
  </metadata>
  <g
     inkscape:label="Layer 1"
     inkscape:groupmode="layer"
     id="layer1">
    <g
       id="g3688"
       transform="matrix(3.27375,0,0,-3.27375,-598.19047,1871.8959)">
      <path
         d="m 293.5619,381.0688 c 47.3334,0 85.7063,38.3723 85.7063,85.7063 0,47.3341 -38.3729,85.7064 -85.7063,85.7064 -47.3341,3e-4 -85.7067,-38.3723 -85.7067,-85.7064 0,-47.3337 38.3726,-85.7066 85.7067,-85.7063"
         style="fill:#0d7fc7;fill-opacity:1;fill-rule:evenodd;stroke:none"
         id="path3690"
         inkscape:connector-curvature="0" />
      <path
         d="m 323.0175,490.5286 c -2.6036,6.0064 -2.5007,12.102 -2.5007,12.102 -5.8487,-5.8496 -17.8277,-8.2072 -22.8028,-8.7012 -3.5523,-0.3527 -10.1015,0.2001 -10.1015,0.2001 0,3e-4 1.6007,1.6999 2.1008,2.0001 -19.853,-0.2526 -27.4034,-6.1007 -27.4034,-6.1007 l -0.2001,-9.5009 c 0,0 -3.0005,10.5009 -3.0005,11.6011 3.8007,2.7005 19.2024,6.0006 19.2024,6.0006 4.9819,0.9964 19.1022,0.7002 19.1022,0.7002 0,0 -0.6996,-2.0001 -1.1997,-2.7003 14.3487,1.5474 21.2542,6.5449 27.3031,13.6015 -0.9477,-6.8256 -0.3725,-11.2091 0.5,-15.1022 0.1463,-0.6522 2.1461,-5.1525 3.4464,-6.3524 2e-4,-0.6001 -1.5001,-3.0005 -1.5001,-3.0005 2e-4,3e-4 -2.0999,3.3004 -2.9461,5.2526"
         style="fill:#ffffff;fill-opacity:1;fill-rule:evenodd;stroke:none"
         id="path3692"
         inkscape:connector-curvature="0" />
      <path
         d="m 261.4374,426.5756 c 4.4291,-9.1066 12.8647,-15.9562 16.2743,-18.9567 4.3526,-3.8299 6.995,-2.8131 9.4008,-3.5005 0.7004,-0.2001 12.0016,-0.1 13.4013,0 0.6151,0.044 6.198,0.2625 8.4013,1.9999 9.118,7.1912 14.6041,14.7415 17.8541,21.1328 l -3.2293,0.076 c -3.4378,-5.6951 -8.1623,-10.9928 -13.8242,-16.7077 -2.2604,-2.2813 -6.5676,-3.2009 -9.3014,-3.2009 -0.7001,3e-4 -11.3011,0 -13.0019,0 -3.4336,3e-4 -4.8668,0.167 -7.9005,2.5002 -4.1709,3.2085 -12.1478,12.1439 -14.252,16.6527 l -3.8225,0.004"
         style="fill:#ffffff;fill-opacity:1;fill-rule:evenodd;stroke:none"
         id="path3694"
         inkscape:connector-curvature="0" />
      <path
         d="m 323.8639,429.0729 c 0,0 14.6002,0.4 18.4006,2.3999 12.2706,6.4587 12.8647,37.8116 8.001,52.4035 -0.8801,2.6402 -8.7876,6.0273 -10.0012,6.2002 0.1999,1.8003 3.6003,15.6008 3.6003,15.6008 0,0 0.3997,3.6002 -0.3999,4.8004 -0.8,1.2005 -10.2008,24.8012 -49.4028,24.8012 -39.2026,3e-4 -49.8033,-25.6014 -49.8033,-25.6014 0,0 -1.8003,-1.1999 -0.7997,-5 1.0001,-3.8001 3.6,-13.8008 3.6,-13.8008 0,0 1.0001,-1.8003 -1.0006,-2.6002 -1.9998,-0.7999 -6.3998,-2.0004 -7.9999,-3.8001 -5.2798,-5.94 -7.7213,-40.197 6.0001,-53.0036 3.0004,-2.8004 19.0012,-2.9999 21.0013,-2.8004 0,25.7556 -4.5332,53.3962 -7.6,61.4041 -0.6749,1.7623 -1.2002,1.5999 -2.2008,1.5999 -0.5995,3.4007 -1.1996,13.4008 -0.3997,15.201 0.8002,1.8 7.2006,19.0012 39.2026,19.0012 32.002,0 39.202,-18.0011 39.202,-21.0016 0,-2.9999 -0.2001,-9.0002 -0.7999,-11.8003 -0.5998,-0.6004 -1.8,-0.6004 -2.2,-2.4001 -5.1299,-23.0839 -8.2774,-37.1985 -6.4001,-61.6037"
         style="fill:#ffffff;fill-opacity:1;fill-rule:evenodd;stroke:none"
         id="path3696"
         inkscape:connector-curvature="0" />
    </g>
  </g>
</svg>
