<?xml version="1.0" encoding="UTF-8" standalone="no"?>
<!-- Created with Inkscape (http://www.inkscape.org/) -->

<svg
   xmlns:dc="http://purl.org/dc/elements/1.1/"
   xmlns:cc="http://creativecommons.org/ns#"
   xmlns:rdf="http://www.w3.org/1999/02/22-rdf-syntax-ns#"
   xmlns:svg="http://www.w3.org/2000/svg"
   xmlns="http://www.w3.org/2000/svg"
   xmlns:sodipodi="http://sodipodi.sourceforge.net/DTD/sodipodi-0.dtd"
   xmlns:inkscape="http://www.inkscape.org/namespaces/inkscape"
   width="210mm"
   height="297mm"
   viewBox="0 0 744.09448819 1052.3622047"
   id="svg3380"
   version="1.1"
   inkscape:version="0.91 r13725"
   sodipodi:docname="NoGloves.svg"
   inkscape:export-filename="C:\Users\badspyro\Documents\NoGloves.png"
   inkscape:export-xdpi="90"
   inkscape:export-ydpi="90">
  <defs
     id="defs3382" />
  <sodipodi:namedview
     id="base"
     pagecolor="#ffffff"
     bordercolor="#666666"
     borderopacity="1.0"
     inkscape:pageopacity="0.0"
     inkscape:pageshadow="2"
     inkscape:zoom="0.98994949"
     inkscape:cx="-63.980122"
     inkscape:cy="682.24201"
     inkscape:document-units="px"
     inkscape:current-layer="layer1"
     showgrid="false"
     inkscape:window-width="1920"
     inkscape:window-height="1017"
     inkscape:window-x="-8"
     inkscape:window-y="-8"
     inkscape:window-maximized="1" />
  <metadata
     id="metadata3385">
    <rdf:RDF>
      <cc:Work
         rdf:about="">
        <dc:format>image/svg+xml</dc:format>
        <dc:type
           rdf:resource="http://purl.org/dc/dcmitype/StillImage" />
        <dc:title />
      </cc:Work>
    </rdf:RDF>
  </metadata>
  <g
     inkscape:label="Layer 1"
     inkscape:groupmode="layer"
     id="layer1">
    <g
       id="g5619">
      <path
         inkscape:export-ydpi="90"
         inkscape:export-xdpi="90"
         inkscape:export-filename="C:\Users\badspyro\Documents\NoGloves.png"
         d="m 82.56148,363.79456 c 0,-154.79996 125.50243,-280.30239 280.28654,-280.30239 154.80208,0 280.30477,125.50322 280.30477,280.30239 5.3e-4,154.79468 -125.50269,280.29473 -280.30477,280.29473 -154.78253,0 -280.28654,-125.50005 -280.28654,-280.29473"
         style="fill:#ed1c24;fill-opacity:1;fill-rule:evenodd;stroke:none"
         id="path3348"
         inkscape:connector-curvature="0" />
      <path
         d="m 362.84802,587.66348 c 123.6488,0 223.88398,-100.24046 223.88398,-223.86892 7.9e-4,-123.63374 -100.23518,-223.87578 -223.88398,-223.87578 -123.6171,0 -223.85386,100.24283 -223.85386,223.87578 0,123.62846 100.23676,223.86892 223.85386,223.86892"
         style="fill:#ffffff;fill-opacity:1;fill-rule:evenodd;stroke:none"
         id="path3350"
         inkscape:connector-curvature="0" />
      <g
         transform="matrix(0.99314894,0,0,0.89931792,777.00031,352.83341)"
         id="g3481">
        <path
           inkscape:connector-curvature="0"
           id="path3417"
           style="fill:#000000;fill-opacity:1;fill-rule:evenodd;stroke:none"
           d="m -461.34535,252.58899 c 28.3172,-12.69255 79.97079,-34.32594 140.62381,-49.15506 12.28633,-3.00241 7.57113,-12.29544 6.18515,-15.6227 -1.6275,-3.9086 -106.44501,-254.230484 -106.44501,-254.230484 0,-0.002 -4.7523,-11.71995 -16.5992,-11.71995 -4.5583,-0.002 -13.02455,4.22955 -13.02455,10.41665 0.002,0.56117 -0.83589,3.42361 -0.0521,6.19883 4.20938,14.92482 18.93174,54.6722699 18.93174,54.6722699 0.002,0 1.32674,6.10639001 -0.97455,7.48650001 -1.96146,1.17895999 -3.24913,-0.63276 -4.23475,-2.60400001 l -27.34268,-72.5884499 c 0,0 -5.859,-15.30175 -17.57896,-15.30175 -11.71604,-0.002 -16.27565,12.6958 -16.27565,16.60245 10e-4,3.90665 1.30461,8.78785 1.95561,10.74345 0.64774,1.95105 24.4125,72.2642699 24.4125,72.2642699 0.65295,2.6040001 2.27915,8.4630001 0.651,9.4388401 -1.62555,0.97846 -3.255,-0.97584 -4.22955,-3.57985 -0.97975,-2.604 -25.3916,-69.98511 -26.04325,-71.28971 -0.65166,-1.30265 -2.93211,-10.73955 -13.02066,-10.73955 -10.09245,-0.002 -15.2998,9.765 -15.2998,16.59855 0.002,6.83745 1.6275,14.6501 2.60335,16.926 0.9765,2.2785 27.34461,72.91721 27.34461,72.91721 0,0 1.62619,5.2093 -0.32485,6.8368 -1.95431,1.6275 -4.8825,-1.9504 -5.86226,-3.90665 -0.97455,-1.9504 -25.71515,-63.47445 -25.71515,-63.47445 0,-0.002 -4.5544,-10.74216 -13.34355,-10.74216 -8.7898,0 -16.6031,7.81135 -16.6031,20.50585 0,6.6727499 0.7441,4.5693799 1.95235,13.0206499 l 86.26336,245.4432841 c 0,0 2.60335,9.114 12.04415,4.88316" />
        <path
           inkscape:connector-curvature="0"
           id="path3419"
           style="fill:#000000;fill-opacity:1;fill-rule:evenodd;stroke:none"
           d="m -330.15909,118.47192 7.1623,16.27956 49.47535,-11.7193 c 0,0 8.46496,-0.65166 6.51065,-14.64881 -1.95039,-13.998454 -16.59919,-85.611714 -16.59919,-85.611714 0,-0.001 -7.31463,-45.2074 -9.11791,-91.14716 -1.29875,-33.201646 -2.2785,-95.700256 -2.2785,-95.700256 0.001,0 1.30265,-42.96925 -28.9708,-42.96925 -10.49607,-0.001 -16.59855,4.55635 -16.59855,4.55635 -0.32875,-3.255 -5.53415,-25.3903 -25.39225,-25.3903 -20.87431,0 -23.436,18.22865 -23.436,18.22865 -2.27915,-1.6275 -5.53415,-7.4852 -16.27956,-7.4852 -29.70448,-10e-4 -28.97015,28.31915 -28.97015,28.31915 -1.95105,-1.62945 -5.53415,-6.51065 -13.6723,-6.1858 0.002,0 -27.01455,-0.30077 -27.01455,35.15595 0,12.04285 0.64775,61.524056 0.64775,61.524056 0,0 11.71995,4.88315 13.0226,7.16165 0.32485,-3.25695 0,-71.938756 0,-71.938756 0,0 -0.32615,-18.55545 13.6723,-18.55545 11.08719,0 9.76565,13.3442 9.76565,13.3442 l 0,62.82671 c 0,0 -0.3281,9.765646 6.18581,9.765646 6.51065,0 7.48454,-9.112696 7.48454,-9.112696 l 0,-79.75596 c 0,0 -0.32615,-18.5535 14.32396,-18.5535 14.97104,-0.001 13.02065,18.55545 13.02065,18.55545 l 0,46.87526 c 0,0 0.97454,10.4173 8.13619,10.4173 7.4865,0 7.4865,-10.4173 7.4865,-10.4173 l 0,-64.77906 c 0,0 0,-13.0187 14.32396,-13.0187 11.08848,-0.002 12.37095,13.6723 12.37095,13.6723 l 0,65.75165 c 0,0 0.9765,9.76761 8.13815,9.76761 7.16165,0 8.1362,-6.83746 8.1362,-9.11465 0.002,-2.27915 0,-35.15596 0,-35.15596 0.002,-0.001 -1.6275,-17.2541 13.6723,-17.2541 15.2998,-0.001 13.9991,19.53 13.9991,19.53 l 10e-4,96.356456 c 0,0 7.4852,89.19157 8.1362,97.32972 0.65165,8.1362 14.9717,79.425904 16.5992,82.356704 -2.9269,0.651 -37.43315,6.18515 -43.94185,10.73955" />
        <path
           inkscape:connector-curvature="0"
           id="path3421"
           style="fill:#000000;fill-opacity:1;fill-rule:evenodd;stroke:none"
           d="m -359.13249,57.274666 11.0683,17.57895 16.9273,-100.90957 c 0,0 1.62555,-8.13815 1.62555,-13.6723 0,-2.9308 -3.47114,-38.41095 -33.5265,-38.41095 -17.7391,-0.002 -26.64087,18.01383 -27.0191,18.8816 -2.2772,5.2054 -9.76435,27.01585 -9.76435,27.01585 l 7.1623,13.99715 11.06439,-32.2258 c 0,0 3.90666,-14.6501 18.88161,-14.6501 14.9769,-0.003 20.83265,17.57895 20.83265,27.01975 0.003,9.4408 -17.2541,95.37736 -17.25215,95.37542" />
      </g>
      <path
         sodipodi:nodetypes="ccccc"
         d="M 562.31415,517.18244 216.38298,170.29489 171.0566,206.92264 519.00562,554.56114 555.17129,525.75387"
         style="fill:#ed1c24;fill-opacity:1;fill-rule:evenodd;stroke:none"
         id="path3352-0"
         inkscape:connector-curvature="0" />
    </g>
  </g>
</svg>
