<?xml version="1.0" encoding="UTF-8" standalone="no"?>
<!-- Created with Inkscape (http://www.inkscape.org/) -->

<svg
   xmlns:dc="http://purl.org/dc/elements/1.1/"
   xmlns:cc="http://creativecommons.org/ns#"
   xmlns:rdf="http://www.w3.org/1999/02/22-rdf-syntax-ns#"
   xmlns:svg="http://www.w3.org/2000/svg"
   xmlns="http://www.w3.org/2000/svg"
   xmlns:sodipodi="http://sodipodi.sourceforge.net/DTD/sodipodi-0.dtd"
   xmlns:inkscape="http://www.inkscape.org/namespaces/inkscape"
   width="210mm"
   height="297mm"
   viewBox="0 0 744.09448819 1052.3622047"
   id="svg3577"
   version="1.1"
   inkscape:version="0.91 r13725"
   sodipodi:docname="UseGuards.svg">
  <defs
     id="defs3579" />
  <sodipodi:namedview
     id="base"
     pagecolor="#ffffff"
     bordercolor="#666666"
     borderopacity="1.0"
     inkscape:pageopacity="0.0"
     inkscape:pageshadow="2"
     inkscape:zoom="0.35"
     inkscape:cx="-52.142857"
     inkscape:cy="520"
     inkscape:document-units="px"
     inkscape:current-layer="layer1"
     showgrid="false"
     inkscape:window-width="1920"
     inkscape:window-height="1017"
     inkscape:window-x="-8"
     inkscape:window-y="-8"
     inkscape:window-maximized="1" />
  <metadata
     id="metadata3582">
    <rdf:RDF>
      <cc:Work
         rdf:about="">
        <dc:format>image/svg+xml</dc:format>
        <dc:type
           rdf:resource="http://purl.org/dc/dcmitype/StillImage" />
        <dc:title></dc:title>
      </cc:Work>
    </rdf:RDF>
  </metadata>
  <g
     inkscape:label="Layer 1"
     inkscape:groupmode="layer"
     id="layer1">
    <g
       id="g3534"
       transform="matrix(6.51,0,0,-6.51,-1543.7439,3153.1412)">
      <path
         d="m 293.3118,385.1793 c 23.6671,0 42.8531,19.1866 42.8531,42.8536 0,23.6673 -19.186,42.8533 -42.8531,42.8533 -23.667,3e-4 -42.8536,-19.1863 -42.8536,-42.8533 3e-4,-23.6667 19.1866,-42.8536 42.8536,-42.8536"
         style="fill:#0d7fc7;fill-opacity:1;fill-rule:evenodd;stroke:none"
         id="path3536"
         inkscape:connector-curvature="0" />
      <path
         d="m 266.1523,409.1658 c 8e-4,2.1152 -1.2994,3.9407 -1.4894,6.0503 -0.0425,0.4748 -0.1196,0.9717 0.1792,1.4091 0.6556,-0.6066 1.2645,-1.2847 2.2187,-1.4746 0.2593,-0.0513 0.5014,0.0331 0.7285,0.0986 0.3634,0.1041 0.6891,0.3141 0.9567,0.6319 0.2772,0.3288 0.392,0.7143 0.4813,1.0922 0.3141,1.3317 0.2531,2.465 0.5709,3.7686 l 1.9902,1.5185 c 0.4385,0.137 0.9385,-0.337 1.4522,-0.2973 0.5967,0.0453 1.1497,0.1876 1.5267,0.7257 0.3067,0.4373 0.4507,0.9104 0.6582,1.3821 0.2702,0.614 0.5275,1.2731 1.0196,1.7124 l 2.5773,1.931 c 0.5556,-0.4793 0.9383,-1.2362 1.7484,-1.3334 0.7155,-0.0862 1.2994,0.3248 1.7495,0.86 1.5704,1.8678 3.1972,3.8427 5.4403,4.7069 -0.0984,-1.1196 -0.5511,-2.3513 0.2256,-3.3406 1.0001,-1.2733 2.5353,-0.4487 3.6958,0.2069 1.8332,1.0355 3.6335,2.2422 5.7561,2.2604 -0.5908,-1.0293 -1.4752,-2.0792 -1.1568,-3.3469 0.2732,-1.0871 1.5298,-1.5123 2.6407,-1.3226 2.3148,0.3946 4.5686,1.5332 6.8497,0.5028 -0.5338,-0.4736 -1.0534,-0.9388 -1.5387,-1.4853 -0.2412,-0.2719 -0.358,-0.6109 -0.4377,-0.9439 -0.2494,-1.048 0.4108,-2.0912 1.3921,-2.3188 1.6883,-0.3915 3.2896,-0.4394 5.0114,-0.8028 0.896,-0.1887 1.7059,-0.4779 2.4276,-1.0355 -0.9754,-0.3543 -1.9874,-0.6669 -2.6688,-1.5607 -0.6684,-0.8762 -0.3952,-2.105 0.5303,-2.7221 1.3584,-0.9071 2.6323,-1.5497 4.0014,-2.4004 0.8481,-0.5267 1.6679,-1.1001 2.0347,-2.0531 -1.0057,0 -2.0446,0.0501 -2.9307,-0.5114 0,3e-4 -2.0089,-0.7991 -0.0595,-3.6221 -0.7393,3e-4 -48.6564,0 -48.6564,0 0,3e-4 1.0743,0.6046 1.0749,1.7141"
         style="fill:#ffffff;fill-opacity:1;fill-rule:evenodd;stroke:none"
         id="path3538"
         inkscape:connector-curvature="0" />
      <path
         d="m 328.8546,407.452 -11.6935,0 0,11.2232 15.9271,0 c 0,0 -1.0752,-5.5778 -4.2336,-11.2232"
         style="fill:#ffffff;fill-opacity:1;fill-rule:evenodd;stroke:none"
         id="path3540"
         inkscape:connector-curvature="0" />
      <path
         d="m 258.9114,406.6557 c -0.009,-0.0159 68.9015,-0.01 69.3525,-3e-4 -0.2166,-0.4266 -0.4459,-0.8563 -0.686,-1.2866 -0.3025,3e-4 -68.0777,0.0224 -68.0548,0 0.0227,-0.023 -0.5949,1.3172 -0.6117,1.2869"
         style="fill:#ffffff;fill-opacity:1;fill-rule:evenodd;stroke:none"
         id="path3542"
         inkscape:connector-curvature="0" />
      <path
         d="m 307.7133,449.6774 c -5.2422,7.0166 -13.614,11.5586 -23.046,11.5586 -15.878,3e-4 -28.7501,-12.8722 -28.7501,-28.7501 0,-6.4993 2.1569,-12.4949 5.7934,-17.3104 l 46.0027,34.5019"
         style="fill:#ffffff;fill-opacity:1;fill-rule:evenodd;stroke:none"
         id="path3544"
         inkscape:connector-curvature="0" />
      <path
         d="m 301.9725,443.81 6.5192,4.9731 c 0,0 5.1746,-6.2839 7.0565,-13.273 0.3022,0.1012 3.3265,1.3439 3.3265,1.3439 l -5.5443,-7.4599 -9.0054,1.7816 3.3599,1.3773 c 0,0 -0.976,4.7444 -5.7124,11.257"
         style="fill:#ffffff;fill-opacity:1;fill-rule:evenodd;stroke:none"
         id="path3546"
         inkscape:connector-curvature="0" />
    </g>
  </g>
</svg>
