<?xml version="1.0" encoding="UTF-8" standalone="no"?>
<!-- Created with Inkscape (http://www.inkscape.org/) -->

<svg
   xmlns:dc="http://purl.org/dc/elements/1.1/"
   xmlns:cc="http://creativecommons.org/ns#"
   xmlns:rdf="http://www.w3.org/1999/02/22-rdf-syntax-ns#"
   xmlns:svg="http://www.w3.org/2000/svg"
   xmlns="http://www.w3.org/2000/svg"
   xmlns:sodipodi="http://sodipodi.sourceforge.net/DTD/sodipodi-0.dtd"
   xmlns:inkscape="http://www.inkscape.org/namespaces/inkscape"
   width="210mm"
   height="297mm"
   viewBox="0 0 744.09448819 1052.3622047"
   id="svg3656"
   version="1.1"
   inkscape:version="0.91 r13725"
   sodipodi:docname="WarningSharp.svg">
  <defs
     id="defs3658" />
  <sodipodi:namedview
     id="base"
     pagecolor="#ffffff"
     bordercolor="#666666"
     borderopacity="1.0"
     inkscape:pageopacity="0.0"
     inkscape:pageshadow="2"
     inkscape:zoom="0.35"
     inkscape:cx="-52.142857"
     inkscape:cy="520"
     inkscape:document-units="px"
     inkscape:current-layer="layer1"
     showgrid="false"
     inkscape:window-width="1920"
     inkscape:window-height="1017"
     inkscape:window-x="-8"
     inkscape:window-y="-8"
     inkscape:window-maximized="1" />
  <metadata
     id="metadata3661">
    <rdf:RDF>
      <cc:Work
         rdf:about="">
        <dc:format>image/svg+xml</dc:format>
        <dc:type
           rdf:resource="http://purl.org/dc/dcmitype/StillImage" />
        <dc:title></dc:title>
      </cc:Work>
    </rdf:RDF>
  </metadata>
  <g
     inkscape:label="Layer 1"
     inkscape:groupmode="layer"
     id="layer1">
    <g
       id="g3613"
       transform="matrix(2.9625,0,0,-2.9625,-816.83563,1236.6678)">
      <path
         d="m 404.3248,397.7991 c 0,0 -1.4961,3.7412 -6.3615,3.7412 -4.8651,0 -7.1136,-3.7412 -7.1136,-3.7412 L 291.7621,225.0122 c 0,0 -2.4998,-4.2676 -0.1953,-8.261 0,3e-4 2.3692,-3.9314 6.2966,-3.9314 3.932,0 197.5782,0 197.5782,0 0,0 5.2932,-0.1494 7.4197,3.992 1.7737,3.4611 0.9102,6.1291 0.061,7.7335 l -98.5975,173.2538"
         style="fill:#000000;fill-opacity:1;fill-rule:evenodd;stroke:none"
         id="path3615"
         inkscape:connector-curvature="0" />
      <path
         d="m 397.8363,382.8929 -89.8047,-156.4725 178.0529,0 -88.2482,156.4725"
         style="fill:#fff200;fill-opacity:1;fill-rule:evenodd;stroke:none"
         id="path3617"
         inkscape:connector-curvature="0" />
      <path
         d="m 385.0084,258.677 c 2.9341,3.9952 11.1254,19.5061 12.7621,24.6172 l -23.8569,3e-4 c -3.5544,0 -6.0713,2.912 -6.0713,6.0573 l 3e-4,19.7921 c 0,2.9531 2.1736,4.7472 3.1499,5.2792 l 25.4965,14.014 c 1.6449,-3.1641 1.6585,-6.1189 -3.3494,-9.1242 l -6.8137,-3.7236 c 0.008,0.008 -0.3878,-0.3991 -0.3433,-0.5842 0.0754,-0.3124 0.3748,-0.6591 0.6605,-0.6591 l 34.8749,3e-4 c 1.7686,0 3.212,-1.4337 3.212,-3.2026 0,-1.7682 -1.4434,-3.202 -3.212,-3.202 l -9.8914,0 -0.4644,-1.9788 15.4126,0 c 1.6991,0 3.077,-1.3621 3.077,-3.0612 0,-1.6991 -1.3779,-3.077 -3.0773,-3.077 l -16.8905,0 -0.4717,-1.9786 12.456,0 c 1.6954,0 3.0691,-1.3682 3.0691,-3.0636 0,-1.6952 -1.3737,-3.0691 -3.0691,-3.0691 l -13.928,0 -0.4703,-1.9786 6.2663,0 c 1.7688,0 3.2023,-1.4267 3.2023,-3.1955 0,-1.7682 -1.4335,-3.2451 -3.2023,-3.2451 l -15.3341,3e-4 0,-48.5666 -13.1938,0 0,23.9491"
         style="fill:#0a0f0c;fill-opacity:1;fill-rule:evenodd;stroke:none"
         id="path3619"
         inkscape:connector-curvature="0" />
      <path
         d="m 404.1556,308.0186 -5.5633,-23.2104 5.5633,0 0,23.2104 0,0 m -5.9925,4.8129 0,0 5.5999,0 -5.5999,-23.2121 0,23.2121 0,0 m -7.4766,0 0,0 5.5666,0 -5.5666,-23.2121 0,23.2121 0,0 m 14.9867,0 0,0 5.5642,0 -5.5642,-23.2121 0,23.2121 0,0 m -9.0275,-4.8129 0,0 -5.5666,-23.2104 5.5666,0 0,23.2104 0,0 m -7.4741,0 0,0 -5.5667,-23.2104 5.5667,0 0,23.2104"
         style="fill:#fff200;fill-opacity:1;fill-rule:evenodd;stroke:none"
         id="path3621"
         inkscape:connector-curvature="0" />
    </g>
  </g>
</svg>
